<?xml version="1.0" encoding="UTF-8" standalone="no"?>
<svg width="328px" height="332px" viewBox="0 0 328 332" version="1.1" xmlns="http://www.w3.org/2000/svg" xmlns:xlink="http://www.w3.org/1999/xlink">
    <!-- Generator: Sketch 39.1 (31720) - http://www.bohemiancoding.com/sketch -->
    <title>isowaaws-gray</title>
    <desc>Created with Sketch.</desc>
    <defs>
        <polygon id="path-1" points="0.0001 332 327.3191 332 327.3191 0.2524 0.0001 0.2524 0.0001 332"></polygon>
    </defs>
    <g id="assets" stroke="none" stroke-width="1" fill="none" fill-rule="evenodd">
        <g id="isowaaws-gray">
            <path d="M172.7877,48.9522 C172.7877,48.9402 172.7757,48.9642 172.7517,49.0232 C172.7397,49.0472 172.7347,49.0652 172.7347,49.0762 C172.7107,49.1242 172.6807,49.1652 172.6457,49.2012 L172.6457,49.2192 L172.6277,49.2362 C172.5927,49.2832 172.5517,49.3302 172.5047,49.3762 C172.5077,49.3742 172.5077,49.3742 172.5037,49.3782 C172.5037,49.3782 172.5047,49.3772 172.5047,49.3762 C172.5007,49.3802 172.4897,49.3922 172.4677,49.4142 C172.4327,49.4382 172.3907,49.4612 172.3437,49.4852 C172.3317,49.4972 172.3137,49.5092 172.2907,49.5212 C172.2547,49.5442 172.2127,49.5682 172.1657,49.5912 L172.1477,49.5912 C172.1357,49.5912 172.1307,49.5982 172.1307,49.6092 C172.1307,49.5982 172.1237,49.5982 172.1127,49.6092 C172.0887,49.6212 172.0527,49.6332 172.0057,49.6452 L171.9527,49.6452 C171.8927,49.6572 171.8337,49.6622 171.7747,49.6622 C171.7277,49.6622 171.6747,49.6572 171.6147,49.6452 L171.5617,49.6452 C171.5147,49.6332 171.4727,49.6212 171.4377,49.6092 C171.4257,49.5982 171.4197,49.5982 171.4197,49.6092 C171.4197,49.5982 171.4137,49.5912 171.4017,49.5912 C171.3427,49.5682 171.2957,49.5442 171.2597,49.5212 C171.2357,49.5092 171.2177,49.4972 171.2067,49.4852 C171.1707,49.4612 171.1357,49.4382 171.0997,49.4142 C171.0647,49.3782 171.0527,49.3672 171.0647,49.3782 C171.0167,49.3312 170.9697,49.2842 170.9227,49.2362 L170.9227,49.2192 C170.9107,49.2192 170.9047,49.2132 170.9047,49.2012 C170.8807,49.1652 170.8567,49.1242 170.8337,49.0762 C170.8337,49.0652 170.8217,49.0472 170.7977,49.0232 C170.7857,48.9642 170.7797,48.9402 170.7797,48.9522 L163.5677,28.4162 L156.3547,48.9522 C156.3547,48.9402 156.3427,48.9642 156.3197,49.0232 C156.3077,49.0472 156.3017,49.0652 156.3017,49.0762 C156.2777,49.1242 156.2487,49.1652 156.2127,49.2012 L156.2127,49.2192 L156.1947,49.2362 C156.1597,49.2842 156.1177,49.3312 156.0707,49.3782 C156.0737,49.3752 156.0747,49.3742 156.0747,49.3742 C156.0747,49.3742 156.0737,49.3752 156.0707,49.3782 C156.0647,49.3842 156.0527,49.3962 156.0357,49.4142 C155.9997,49.4382 155.9637,49.4612 155.9287,49.4852 C155.9047,49.4972 155.8867,49.5092 155.8757,49.5212 C155.8277,49.5442 155.7807,49.5682 155.7337,49.5912 L155.7157,49.5912 L155.6977,49.6092 C155.7087,49.5982 155.7037,49.5982 155.6797,49.6092 C155.6557,49.6212 155.6207,49.6332 155.5737,49.6452 L155.5197,49.6452 C155.4607,49.6572 155.4017,49.6622 155.3427,49.6622 C155.2947,49.6622 155.2417,49.6572 155.1827,49.6452 L155.1287,49.6452 C155.0817,49.6332 155.0407,49.6212 155.0047,49.6092 C154.9987,49.6032 154.9957,49.6002 154.9957,49.6002 C154.9957,49.6002 154.9987,49.6032 155.0047,49.6092 L154.9867,49.5912 L154.9697,49.5912 C154.9217,49.5682 154.8737,49.5442 154.8267,49.5212 C154.8027,49.5092 154.7857,49.4972 154.7737,49.4852 C154.7387,49.4612 154.7027,49.4382 154.6677,49.4142 C154.6317,49.3782 154.6197,49.3672 154.6317,49.3782 C154.5837,49.3312 154.5427,49.2842 154.5077,49.2362 C154.4957,49.2362 154.4897,49.2302 154.4897,49.2192 L154.4717,49.2012 C154.4477,49.1652 154.4247,49.1242 154.4007,49.0762 C154.4007,49.0652 154.3947,49.0472 154.3827,49.0232 C154.3587,48.9642 154.3477,48.9402 154.3477,48.9522 L146.1397,25.5552 C146.0337,25.2712 146.0447,24.9992 146.1757,24.7382 C146.3057,24.4662 146.5067,24.2822 146.7797,24.1872 C147.0637,24.0932 147.3357,24.1102 147.5967,24.2412 C147.8567,24.3712 148.0407,24.5722 148.1477,24.8452 L155.3427,45.3812 L162.5547,24.8452 C162.5427,24.8802 162.5547,24.8632 162.5907,24.7912 C162.6017,24.7562 162.6137,24.7202 162.6257,24.6852 C162.6497,24.6612 162.6677,24.6382 162.6797,24.6142 C162.7027,24.5782 162.7267,24.5492 162.7507,24.5252 C162.7737,24.4892 162.7977,24.4662 162.8217,24.4542 C162.8447,24.4302 162.8687,24.4072 162.8927,24.3832 C162.9157,24.3592 162.9397,24.3362 162.9637,24.3122 C162.9987,24.2882 163.0347,24.2702 163.0697,24.2582 C163.0937,24.2472 163.1237,24.2352 163.1587,24.2232 C163.1907,24.2092 163.2127,24.1992 163.2247,24.1932 C163.1977,24.1992 163.1927,24.1972 163.2127,24.1872 C163.2417,24.1802 163.2457,24.1822 163.2247,24.1932 C163.2317,24.1912 163.2387,24.1902 163.2477,24.1872 C163.2837,24.1762 163.3187,24.1642 163.3547,24.1522 C163.4017,24.1522 163.4367,24.1462 163.4607,24.1342 L163.5677,24.1342 L163.6737,24.1342 C163.6857,24.1462 163.7157,24.1522 163.7627,24.1522 C163.8097,24.1642 163.8457,24.1762 163.8697,24.1872 C163.9167,24.1992 163.9347,24.1992 163.9227,24.1872 L163.9407,24.2052 C163.9517,24.2052 163.9637,24.2112 163.9767,24.2232 C164.0117,24.2352 164.0407,24.2472 164.0647,24.2582 C164.1007,24.2822 164.1297,24.3002 164.1537,24.3122 C164.1777,24.3362 164.2067,24.3592 164.2427,24.3832 C164.2667,24.4072 164.2897,24.4302 164.3137,24.4542 C164.3377,24.4782 164.3607,24.5012 164.3847,24.5252 C164.4087,24.5492 164.4257,24.5782 164.4377,24.6142 C164.4617,24.6382 164.4797,24.6612 164.4917,24.6852 C164.5147,24.7202 164.5327,24.7562 164.5447,24.7912 C164.5797,24.8632 164.5857,24.8802 164.5627,24.8452 L171.7747,45.3812 L178.9877,24.8452 C179.0827,24.5722 179.2657,24.3712 179.5387,24.2412 C179.7987,24.1102 180.0647,24.0932 180.3377,24.1872 C180.6217,24.2822 180.8287,24.4662 180.9597,24.7382 C181.0777,24.9992 181.0897,25.2712 180.9947,25.5552 L172.7877,48.9522 Z M163.5627,13.6882 C151.6127,13.6882 141.9257,23.3752 141.9257,35.3252 C141.9257,47.2752 151.6127,56.9622 163.5627,56.9622 C175.5127,56.9622 185.2007,47.2752 185.2007,35.3252 C185.2007,23.3752 175.5127,13.6882 163.5627,13.6882 L163.5627,13.6882 Z" id="Fill-10" fill="#A2AEB6"></path>
            <g id="Group-18">
                <mask id="mask-2" fill="white">
                    <use xlink:href="#path-1"></use>
                </mask>
                <g id="Clip-17"></g>
                <path d="M314.9521,173.3034 C314.9521,173.9834 314.3951,174.5404 313.7151,174.5404 L307.5321,174.5404 L307.5321,188.6214 C307.5321,189.9024 306.7791,191.1044 305.5781,191.5494 C303.5471,192.3024 301.5411,190.7064 301.5411,188.7434 L301.5411,138.1334 L301.5411,138.0794 C301.5411,137.0174 302.0691,135.9974 302.9901,135.4704 C305.1801,134.2184 307.5321,135.9124 307.5321,138.0384 L307.5321,152.8974 L313.7151,152.8974 C314.3951,152.8974 314.9521,153.4544 314.9521,154.1344 L314.9521,173.3034 Z M289.1741,188.7434 L289.1741,203.2174 L288.0381,204.4264 C287.9371,204.5334 277.7841,215.2174 258.2051,225.7464 C240.1841,235.4374 210.2251,246.9904 169.8431,246.9904 C129.2111,246.9904 95.8371,235.4114 74.9941,225.6984 C52.3011,215.1234 39.0961,204.3924 38.9651,204.2854 L38.1451,203.6104 L38.1451,188.7434 L38.1451,138.1334 C38.1451,137.0034 38.1631,135.8754 38.1931,134.7494 L39.8051,132.8014 C39.9331,132.6454 52.9141,117.0924 75.4911,101.5664 C88.7411,92.4554 102.5931,85.2004 116.6611,80.0054 C134.1591,73.5434 152.0521,70.2664 169.8431,70.2664 C187.4911,70.2664 204.6181,73.4614 220.7471,79.7614 C233.6971,84.8204 246.0561,91.8864 257.4821,100.7634 C277.0811,115.9924 287.2641,131.4754 287.3601,131.6224 L289.1101,134.3294 C289.1481,135.5944 289.1741,136.8624 289.1741,138.1334 L289.1741,188.7434 Z M289.1741,243.2384 C284.3231,247.7544 271.6091,258.6264 251.7721,268.8254 C225.0001,282.5884 196.3261,289.5674 166.5451,289.5674 C129.8601,289.5674 97.3281,277.2564 76.4961,266.9294 C56.6751,257.1024 42.9791,246.9754 38.1451,243.0514 L38.1451,219.0184 C44.5431,223.4204 55.1471,230.0604 69.3651,236.7184 C91.4201,247.0464 126.7541,259.3574 169.8431,259.3574 C213.0901,259.3574 245.2421,246.8454 264.5991,236.3484 C275.5651,230.4024 283.7551,224.4504 289.1741,220.0224 L289.1741,243.2384 Z M272.4241,290.1044 C269.6191,292.7204 262.6861,298.4134 250.3721,304.0614 C222.3101,316.9314 188.4991,319.6324 165.0771,319.6324 C122.5401,319.6324 94.4901,311.1864 78.4491,304.1004 C65.7511,298.4904 58.3891,292.8334 55.3591,290.2074 L55.3591,269.5704 C60.1091,272.3454 65.3461,275.2054 71.0031,278.0094 C93.0191,288.9234 127.4651,301.9344 166.5451,301.9344 C198.3121,301.9344 228.8891,294.4954 257.4261,279.8244 C262.9321,276.9934 267.9361,274.1014 272.4241,271.2834 L272.4241,290.1044 Z M75.0201,49.4944 C98.8001,25.7154 130.2791,12.6194 163.6601,12.6194 C197.0401,12.6194 228.5191,25.7154 252.2991,49.4944 C269.3381,66.5334 280.8891,87.5264 286.0701,110.3384 C280.9111,104.7084 274.0441,98.0124 265.4601,91.3024 C253.0721,81.6184 239.6411,73.8984 225.5391,68.3564 C207.8821,61.4174 189.1441,57.8994 169.8431,57.8994 C150.5851,57.8994 131.2511,61.4344 112.3771,68.4034 C97.3461,73.9544 82.5791,81.6834 68.4841,91.3764 C56.3871,99.6954 46.9221,107.9764 40.4351,114.2334 C45.1431,89.9184 57.0161,67.4984 75.0201,49.4944 L75.0201,49.4944 Z M25.7781,138.1334 L25.7781,188.7434 C25.7781,190.7064 23.7731,192.3024 21.7421,191.5494 C20.5401,191.1044 19.7871,189.9024 19.7871,188.6204 L19.7871,174.5404 L13.6041,174.5404 C12.9241,174.5404 12.3671,173.9834 12.3671,173.3034 L12.3671,154.1344 C12.3671,153.4544 12.9241,152.8974 13.6041,152.8974 L19.7871,152.8974 L19.7871,138.1614 C19.7871,136.8804 20.5401,135.6784 21.7421,135.2334 C23.7731,134.4804 25.7781,136.0754 25.7781,138.0384 L25.7781,138.1334 Z M319.8991,142.0184 L319.8991,138.2934 C319.8991,130.2814 313.8591,123.4154 305.8751,122.7334 C304.0861,122.5804 302.3531,122.7374 300.7231,123.1554 C299.2791,109.8864 295.9171,96.9624 290.6571,84.5804 C283.6891,68.1784 273.7251,53.4314 261.0441,40.7494 C248.3621,28.0684 233.6151,18.1044 217.2131,11.1364 C200.2131,3.9144 182.1951,0.2524 163.6591,0.2524 C145.1231,0.2524 127.1061,3.9144 110.1061,11.1364 C93.7041,18.1044 78.9571,28.0684 66.2751,40.7494 C53.5931,53.4314 43.6301,68.1784 36.6621,84.5804 C31.4021,96.9624 28.0401,109.8864 26.5961,123.1554 C24.9681,122.7384 23.2371,122.5804 21.4491,122.7334 C13.4631,123.4134 7.4201,130.2794 7.4201,138.2944 L7.4201,142.0184 C3.0191,144.2744 0.0001,148.8584 0.0001,154.1344 L0.0001,173.3034 C0.0001,178.5794 3.0191,183.1634 7.4201,185.4194 L7.4201,188.4994 C7.4201,195.8524 12.5081,202.3434 19.7161,203.7984 C21.8211,204.2234 23.8611,204.1914 25.7781,203.8114 L25.7781,248.4314 L27.5891,250.2424 C29.3391,251.9924 34.7651,256.3784 42.9921,261.8594 L42.9921,295.2974 L44.6271,297.0734 C45.9411,298.4994 77.8041,332.0004 165.0771,332.0004 C252.5121,332.0004 282.1181,298.0684 283.3361,296.6244 L284.7921,294.8974 L284.7921,262.8364 C293.1741,256.6094 298.2551,251.7164 299.7301,250.2424 L301.5411,248.4304 L301.5411,203.8114 C303.4621,204.1924 305.5081,204.2234 307.6161,203.7954 C314.8181,202.3354 319.8991,195.8464 319.8991,188.4984 L319.8991,185.4194 C324.3001,183.1634 327.3191,178.5794 327.3191,173.3034 L327.3191,154.1344 C327.3191,148.8584 324.3001,144.2744 319.8991,142.0184 L319.8991,142.0184 Z" id="Fill-16" fill="#A2AEB6" mask="url(#mask-2)"></path>
            </g>
            <path d="M63.7637,155.9088 C62.8617,155.9088 61.9467,155.7108 61.0797,155.2928 C58.0047,153.8078 56.7147,150.1108 58.1997,147.0358 C58.4547,146.5078 64.6237,133.9488 80.3687,120.5268 C98.0717,105.4358 112.0887,103.8258 121.3647,102.7598 L122.1417,102.6698 C125.5337,102.2758 128.6037,104.7058 128.9977,108.0978 C129.3927,111.4908 126.9617,114.5598 123.5697,114.9548 L122.7767,115.0458 C114.5267,115.9938 103.2267,117.2928 88.3917,129.9388 C74.6067,141.6888 69.3877,152.3068 69.3367,152.4118 C68.2697,154.6208 66.0627,155.9088 63.7637,155.9088" id="Fill-19" fill="#D2DCDE" opacity="0.478719683"></path>
            <path d="M58.9309,168.3356 C58.1859,168.3356 57.4319,168.1326 56.7549,167.7056 L54.0509,166.0046 C52.1379,164.8006 51.5629,162.2736 52.7679,160.3606 C53.9709,158.4476 56.4989,157.8726 58.4109,159.0766 L61.1149,160.7776 C63.0279,161.9826 63.6029,164.5086 62.3989,166.4226 C61.6209,167.6576 60.2909,168.3356 58.9309,168.3356" id="Fill-21" fill="#D2DCDE" opacity="0.478719683"></path>
        </g>
    </g>
</svg>