<?xml version="1.0" encoding="UTF-8" standalone="no"?>
<svg width="1055px" height="332px" viewBox="0 0 1055 332" version="1.1" xmlns="http://www.w3.org/2000/svg" xmlns:xlink="http://www.w3.org/1999/xlink">
    <!-- Generator: Sketch 39.1 (31720) - http://www.bohemiancoding.com/sketch -->
    <title>logo-waaws-white</title>
    <desc>Created with Sketch.</desc>
    <defs></defs>
    <g id="assets" stroke="none" stroke-width="1" fill="none" fill-rule="evenodd">
        <g id="logo-waaws-white" fill="#FFFFFF">
            <path d="M566.8157,98.1631 C568.5617,98.7461 569.8347,99.8731 570.6347,101.5461 C571.3627,103.1471 571.4357,104.8201 570.8527,106.5661 L520.4387,250.2841 C520.4387,250.2121 520.3637,250.3571 520.2187,250.7201 C520.1457,250.8671 520.1097,250.9761 520.1097,251.0471 C519.9637,251.3391 519.7827,251.5941 519.5647,251.8121 L519.5647,251.9211 L519.4557,252.0301 C519.2377,252.3211 518.9817,252.6131 518.6927,252.9021 C518.7627,252.8311 518.6927,252.9021 518.4727,253.1201 C518.2547,253.2681 517.9997,253.4131 517.7097,253.5581 C517.6367,253.6311 517.5277,253.7041 517.3827,253.7761 C517.1647,253.9231 516.9077,254.0671 516.6177,254.2121 L516.5087,254.2121 C516.4357,254.2121 516.3997,254.2501 516.3997,254.3211 C516.3997,254.2501 516.3627,254.2501 516.2907,254.3211 C516.1447,254.3941 515.9267,254.4681 515.6367,254.5391 L515.3097,254.5391 C514.9437,254.6131 514.5807,254.6481 514.2177,254.6481 C513.9267,254.6481 513.5997,254.6131 513.2347,254.5391 L512.9077,254.5391 C512.6167,254.4681 512.3627,254.3941 512.1447,254.3211 C512.0717,254.2501 512.0357,254.2501 512.0357,254.3211 C512.0357,254.2501 511.9977,254.2121 511.9267,254.2121 C511.5607,254.0671 511.2707,253.9231 511.0527,253.7761 C510.9067,253.7041 510.7977,253.6311 510.7257,253.5581 C510.5077,253.4131 510.2897,253.2681 510.0717,253.1201 C509.8517,252.9021 509.7787,252.8311 509.8517,252.9021 C509.5607,252.6131 509.2697,252.3211 508.9797,252.0301 L508.9797,251.9211 C508.9067,251.9211 508.8707,251.8851 508.8707,251.8121 C508.7237,251.5941 508.5797,251.3391 508.4347,251.0471 C508.4347,250.9761 508.3617,250.8671 508.2167,250.7201 C508.1417,250.3571 508.1057,250.2121 508.1057,250.2841 L463.8017,124.1351 L419.4977,250.2841 C419.4977,250.2121 419.4237,250.3571 419.2787,250.7201 C419.2057,250.8671 419.1697,250.9761 419.1697,251.0471 C419.0227,251.3391 418.8417,251.5941 418.6237,251.8121 L418.6237,251.9211 L418.5147,252.0301 C418.2967,252.3211 418.0407,252.6131 417.7517,252.9021 C417.8227,252.8311 417.7517,252.9021 417.5327,253.1201 C417.3147,253.2681 417.0957,253.4131 416.8777,253.5581 C416.7307,253.6311 416.6217,253.7041 416.5507,253.7761 C416.2587,253.9231 415.9677,254.0671 415.6777,254.2121 L415.5687,254.2121 L415.4587,254.3211 C415.5307,254.2501 415.4947,254.2501 415.3497,254.3211 C415.2027,254.3941 414.9847,254.4681 414.6957,254.5391 L414.3687,254.5391 C414.0037,254.6131 413.6397,254.6481 413.2767,254.6481 C412.9847,254.6481 412.6577,254.6131 412.2947,254.5391 L411.9667,254.5391 C411.6757,254.4681 411.4217,254.3941 411.2037,254.3211 C411.1297,254.2501 411.1297,254.2501 411.2037,254.3211 L411.0947,254.2121 L410.9857,254.2121 C410.6937,254.0671 410.4017,253.9231 410.1117,253.7761 C409.9647,253.7041 409.8557,253.6311 409.7847,253.5581 C409.5667,253.4131 409.3487,253.2681 409.1307,253.1201 C408.9117,252.9021 408.8387,252.8311 408.9117,252.9021 C408.6197,252.6131 408.3657,252.3211 408.1477,252.0301 C408.0747,252.0301 408.0387,251.9941 408.0387,251.9211 L407.9297,251.8121 C407.7827,251.5941 407.6377,251.3391 407.4937,251.0471 C407.4937,250.9761 407.4557,250.8671 407.3847,250.7201 C407.2377,250.3571 407.1657,250.2121 407.1657,250.2841 L356.7497,106.5661 C356.0947,104.8201 356.1657,103.1471 356.9677,101.5461 C357.7677,99.8731 359.0037,98.7461 360.6787,98.1631 C362.4247,97.5811 364.0967,97.6901 365.6977,98.4901 C367.2977,99.2911 368.4267,100.5281 369.0807,102.2011 L413.2767,228.3491 L457.5827,102.2011 C457.5077,102.4191 457.5827,102.3101 457.8007,101.8731 C457.8717,101.6551 457.9447,101.4371 458.0187,101.2181 C458.1637,101.0731 458.2727,100.9281 458.3457,100.7821 C458.4907,100.5641 458.6347,100.3831 458.7817,100.2361 C458.9267,100.0181 459.0717,99.8731 459.2177,99.8001 C459.3637,99.6551 459.5087,99.5101 459.6557,99.3631 C459.7997,99.2181 459.9447,99.0731 460.0917,98.9271 C460.3097,98.7821 460.5277,98.6731 460.7457,98.5991 C460.8907,98.5281 461.0747,98.4541 461.2927,98.3811 C461.7997,98.1631 461.9087,98.0911 461.6197,98.1631 C461.4727,98.2361 461.5457,98.2361 461.8377,98.1631 C462.0557,98.0911 462.2737,98.0181 462.4917,97.9451 C462.7817,97.9451 463.0007,97.9091 463.1477,97.8361 L463.8017,97.8361 L464.4557,97.8361 C464.5277,97.9091 464.7107,97.9451 465.0027,97.9451 C465.2917,98.0181 465.5097,98.0911 465.6567,98.1631 C465.9467,98.2361 466.0557,98.2361 465.9837,98.1631 L466.0927,98.2721 C466.1647,98.2721 466.2377,98.3091 466.3127,98.3811 C466.5307,98.4541 466.7107,98.5281 466.8577,98.5991 C467.0757,98.7461 467.2557,98.8551 467.4027,98.9271 C467.5477,99.0731 467.7297,99.2181 467.9477,99.3631 C468.0937,99.5101 468.2387,99.6551 468.3857,99.8001 C468.5307,99.9461 468.6747,100.0911 468.8217,100.2361 C468.9667,100.3831 469.0757,100.5641 469.1487,100.7821 C469.2937,100.9281 469.4027,101.0731 469.4757,101.2181 C469.6207,101.4371 469.7297,101.6551 469.8047,101.8731 C470.0227,102.3101 470.0577,102.4191 469.9137,102.2011 L514.2177,228.3491 L558.5217,102.2011 C559.1047,100.5281 560.2307,99.2911 561.9047,98.4901 C563.5047,97.6901 565.1417,97.5811 566.8157,98.1631" id="Fill-1"></path>
            <path d="M942.8511,97.9719 C944.5971,98.5549 945.8701,99.6819 946.6701,101.3549 C947.3981,102.9559 947.4711,104.6289 946.8881,106.3749 L896.4741,250.0929 C896.4741,250.0209 896.3991,250.1659 896.2541,250.5289 C896.1811,250.6759 896.1451,250.7849 896.1451,250.8559 C895.9991,251.1479 895.8181,251.4029 895.6001,251.6209 L895.6001,251.7299 L895.4911,251.8389 C895.2731,252.1299 895.0171,252.4219 894.7281,252.7109 C894.7981,252.6399 894.7281,252.7109 894.5081,252.9289 C894.2901,253.0769 894.0351,253.2219 893.7451,253.3669 C893.6721,253.4399 893.5631,253.5129 893.4181,253.5849 C893.2001,253.7319 892.9431,253.8759 892.6531,254.0209 L892.5441,254.0209 C892.4711,254.0209 892.4351,254.0589 892.4351,254.1299 C892.4351,254.0589 892.3981,254.0589 892.3261,254.1299 C892.1801,254.2029 891.9611,254.2769 891.6721,254.3479 L891.3451,254.3479 C890.9791,254.4219 890.6161,254.4569 890.2531,254.4569 C889.9621,254.4569 889.6351,254.4219 889.2701,254.3479 L888.9431,254.3479 C888.6521,254.2769 888.3981,254.2029 888.1801,254.1299 C888.1071,254.0589 888.0711,254.0589 888.0711,254.1299 C888.0711,254.0589 888.0331,254.0209 887.9621,254.0209 C887.5961,253.8759 887.3061,253.7319 887.0881,253.5849 C886.9421,253.5129 886.8331,253.4399 886.7611,253.3669 C886.5431,253.2219 886.3251,253.0769 886.1071,252.9289 C885.8871,252.7109 885.8141,252.6399 885.8871,252.7109 C885.5961,252.4219 885.3051,252.1299 885.0151,251.8389 L885.0151,251.7299 C884.9421,251.7299 884.9061,251.6939 884.9061,251.6209 C884.7591,251.4029 884.6151,251.1479 884.4701,250.8559 C884.4701,250.7849 884.3961,250.6759 884.2521,250.5289 C884.1771,250.1659 884.1411,250.0209 884.1411,250.0929 L839.8371,123.9439 L795.5331,250.0929 C795.5331,250.0209 795.4591,250.1659 795.3141,250.5289 C795.2411,250.6759 795.2051,250.7849 795.2051,250.8559 C795.0581,251.1479 794.8771,251.4029 794.6591,251.6209 L794.6591,251.7299 L794.5501,251.8389 C794.3321,252.1299 794.0761,252.4219 793.7861,252.7109 C793.8581,252.6399 793.7861,252.7109 793.5681,252.9289 C793.3501,253.0769 793.1311,253.2219 792.9131,253.3669 C792.7661,253.4399 792.6571,253.5129 792.5861,253.5849 C792.2941,253.7319 792.0031,253.8759 791.7131,254.0209 L791.6041,254.0209 L791.4941,254.1299 C791.5661,254.0589 791.5301,254.0589 791.3851,254.1299 C791.2381,254.2029 791.0201,254.2769 790.7311,254.3479 L790.4031,254.3479 C790.0391,254.4219 789.6751,254.4569 789.3121,254.4569 C789.0201,254.4569 788.6931,254.4219 788.3301,254.3479 L788.0021,254.3479 C787.7111,254.2769 787.4571,254.2029 787.2391,254.1299 C787.1651,254.0589 787.1651,254.0589 787.2391,254.1299 L787.1301,254.0209 L787.0211,254.0209 C786.7291,253.8759 786.4371,253.7319 786.1471,253.5849 C786.0001,253.5129 785.8911,253.4399 785.8201,253.3669 C785.6021,253.2219 785.3841,253.0769 785.1661,252.9289 C784.9471,252.7109 784.8741,252.6399 784.9471,252.7109 C784.6551,252.4219 784.4011,252.1299 784.1831,251.8389 C784.1101,251.8389 784.0741,251.8029 784.0741,251.7299 L783.9651,251.6209 C783.8181,251.4029 783.6731,251.1479 783.5291,250.8559 C783.5291,250.7849 783.4911,250.6759 783.4191,250.5289 C783.2731,250.1659 783.2011,250.0209 783.2011,250.0929 L732.7851,106.3749 C732.1301,104.6289 732.2011,102.9559 733.0031,101.3549 C733.8031,99.6819 735.0391,98.5549 736.7141,97.9719 C738.4601,97.3899 740.1321,97.4989 741.7331,98.2989 C743.3331,99.0999 744.4621,100.3369 745.1161,102.0099 L789.3121,228.1579 L833.6171,102.0099 C833.5431,102.2279 833.6171,102.1189 833.8361,101.6819 C833.9071,101.4639 833.9801,101.2459 834.0541,101.0269 C834.1981,100.8819 834.3081,100.7369 834.3811,100.5909 C834.5261,100.3729 834.6701,100.1919 834.8171,100.0449 C834.9621,99.8269 835.1071,99.6819 835.2531,99.6089 C835.3991,99.4639 835.5441,99.3189 835.6911,99.1719 C835.8351,99.0269 835.9801,98.8819 836.1271,98.7359 C836.3451,98.5909 836.5631,98.4819 836.7811,98.4079 C836.9261,98.3369 837.1091,98.2629 837.3281,98.1899 C837.8351,97.9719 837.9441,97.8999 837.6551,97.9719 C837.5081,98.0449 837.5811,98.0449 837.8731,97.9719 C838.0911,97.8999 838.3091,97.8269 838.5271,97.7539 C838.8171,97.7539 839.0361,97.7179 839.1831,97.6449 L839.8371,97.6449 L840.4911,97.6449 C840.5631,97.7179 840.7461,97.7539 841.0381,97.7539 C841.3271,97.8269 841.5451,97.8999 841.6921,97.9719 C841.9821,98.0449 842.0911,98.0449 842.0191,97.9719 L842.1281,98.0809 C842.2001,98.0809 842.2731,98.1179 842.3481,98.1899 C842.5661,98.2629 842.7461,98.3369 842.8931,98.4079 C843.1111,98.5549 843.2911,98.6639 843.4381,98.7359 C843.5831,98.8819 843.7651,99.0269 843.9831,99.1719 C844.1291,99.3189 844.2741,99.4639 844.4211,99.6089 C844.5651,99.7549 844.7101,99.8999 844.8571,100.0449 C845.0021,100.1919 845.1111,100.3729 845.1841,100.5909 C845.3291,100.7369 845.4381,100.8819 845.5111,101.0269 C845.6561,101.2459 845.7651,101.4639 845.8401,101.6819 C846.0581,102.1189 846.0931,102.2279 845.9491,102.0099 L890.2531,228.1579 L934.5571,102.0099 C935.1401,100.3369 936.2661,99.0999 937.9401,98.2989 C939.5401,97.4989 941.1771,97.3899 942.8511,97.9719" id="Fill-3"></path>
            <path d="M673.8516,204.9964 L701.3756,121.8434 L727.8586,204.9964 L673.8516,204.9964 Z M574.5296,204.9964 L602.0546,121.8434 L628.5366,204.9964 L574.5296,204.9964 Z M756.9806,245.5914 L743.5726,209.0344 L743.5726,208.9254 L707.3786,102.3104 C707.2306,101.9464 707.0506,101.5464 706.8316,101.1094 C706.8316,101.1824 706.6856,101.0374 706.3956,100.6734 C706.1776,100.3834 706.0316,100.2004 705.9596,100.1274 C705.8866,100.1274 705.7046,99.9824 705.4136,99.6914 L704.9766,99.3634 C704.2496,98.8554 703.4486,98.5284 702.5766,98.3814 L702.0316,98.3814 C701.6656,98.3094 701.4476,98.2724 701.3756,98.2724 C701.3026,98.2724 701.0486,98.3094 700.6126,98.3814 L700.0666,98.3814 C699.2656,98.5284 698.5006,98.8554 697.7746,99.3634 C697.8466,99.2914 697.7016,99.4014 697.3386,99.6914 C697.0476,99.9094 696.8636,100.0554 696.7936,100.1274 C696.7186,100.2004 696.5746,100.3834 696.3556,100.6734 L695.9196,101.1094 C695.7016,101.5464 695.5196,101.9464 695.3746,102.3104 L658.1376,208.9254 L658.1376,209.0344 L651.4816,228.7484 L644.2506,209.0344 L644.2506,208.9254 L608.0576,102.3104 C607.9096,101.9464 607.7286,101.5464 607.5106,101.1094 C607.5106,101.1824 607.3646,101.0374 607.0746,100.6734 C606.8566,100.3834 606.7096,100.2004 606.6386,100.1274 C606.5656,100.1274 606.3826,99.9824 606.0916,99.6914 L605.6556,99.3634 C604.9286,98.8554 604.1276,98.5284 603.2556,98.3814 L602.7106,98.3814 C602.3446,98.3094 602.1266,98.2724 602.0546,98.2724 C601.9816,98.2724 601.7276,98.3094 601.2916,98.3814 L600.7446,98.3814 C599.9436,98.5284 599.1796,98.8554 598.4536,99.3634 C598.5256,99.2914 598.3806,99.4014 598.0176,99.6914 C597.7256,99.9094 597.5426,100.0554 597.4726,100.1274 C597.3976,100.2004 597.2526,100.3834 597.0346,100.6734 L596.5986,101.1094 C596.3806,101.5464 596.1976,101.9464 596.0536,102.3104 L558.8156,208.9254 L558.8156,209.0344 L546.4726,245.5914 C545.7446,247.2654 545.7446,248.9384 546.4726,250.6114 C547.1276,252.2854 548.2906,253.4494 549.9646,254.1034 C550.7646,254.4674 551.6016,254.6484 552.4746,254.6484 C555.3836,254.6484 557.3856,253.3044 558.4766,250.6114 L569.1826,218.0914 L633.8836,218.0914 L645.6546,250.6114 C646.7446,253.3044 648.7446,254.6484 651.6556,254.6484 C651.6796,254.6484 651.7016,254.6414 651.7256,254.6414 C651.7496,254.6414 651.7716,254.6484 651.7956,254.6484 C654.7056,254.6484 656.7066,253.3044 657.7986,250.6114 L668.5046,218.0914 L733.2056,218.0914 L744.9766,250.6114 C746.0666,253.3044 748.0666,254.6484 750.9776,254.6484 C751.8516,254.6484 752.6866,254.4674 753.4886,254.1034 C755.1596,253.4494 756.3246,252.2854 756.9806,250.6114 C757.7056,248.9384 757.7056,247.2654 756.9806,245.5914 L756.9806,245.5914 Z" id="Fill-5"></path>
            <path d="M1004.7242,169.8582 C1004.5912,169.8582 1004.4712,169.8852 1004.3412,169.8922 C1004.2482,169.8852 1004.1642,169.8622 1004.0702,169.8582 C990.2472,169.6402 980.1712,166.1482 973.8432,159.3822 C969.1862,154.5092 967.0042,148.9432 967.2952,142.6862 C967.7312,133.8112 971.3682,126.3172 978.2072,120.2062 C985.0452,114.0952 993.2292,111.0402 1002.7602,111.0402 C1011.5622,111.0402 1019.3842,112.7142 1026.2232,116.0592 C1034.4422,119.9882 1039.5352,125.7362 1041.5002,133.3012 C1041.9372,135.0472 1042.9182,136.3572 1044.4462,137.2302 C1045.9742,138.1762 1047.6112,138.3942 1049.3572,137.8842 C1051.1032,137.4482 1052.4492,136.4662 1053.3942,134.9382 C1054.2682,133.4102 1054.4862,131.7732 1054.0502,130.0272 C1051.2122,119.1882 1044.3732,110.9312 1033.5342,105.2562 C1024.5132,100.4552 1014.2552,98.0542 1002.7602,98.0542 C989.7382,98.0542 978.5702,102.3102 969.2592,110.8212 C959.8752,119.3332 954.8912,129.7372 954.3082,142.0312 C953.8722,151.9992 957.2172,160.7652 964.3482,168.3302 C973.2232,177.7882 986.3922,182.6262 1003.8522,182.8442 L1003.9612,182.8442 C1004.0562,182.8442 1004.1442,182.8222 1004.2372,182.8192 C1004.3292,182.8222 1004.4122,182.8442 1004.5062,182.8442 C1018.3272,183.0622 1028.4052,186.5542 1034.7352,193.3202 C1039.3892,198.1952 1041.5712,203.7962 1041.2812,210.1252 C1040.8452,218.9282 1037.2072,226.3852 1030.3692,232.4972 C1023.5302,238.6072 1015.3452,241.6632 1005.8162,241.6632 C997.0132,241.6632 989.1912,240.0262 982.3552,236.7522 C974.1322,232.7522 969.0412,226.9692 967.0772,219.4012 C966.6412,217.7282 965.6582,216.4182 964.1302,215.4722 C962.5292,214.5992 960.8922,214.3812 959.2192,214.8172 C957.4732,215.2542 956.1262,216.2362 955.1812,217.7642 C954.3082,219.3652 954.0902,221.0022 954.5282,222.6752 C957.3642,233.5152 964.2022,241.8092 975.0422,247.5552 C984.0622,252.2852 994.3202,254.6482 1005.8162,254.6482 C1018.8372,254.6482 1030.0052,250.3932 1039.3172,241.8812 C1048.7022,233.3692 1053.6482,222.9662 1054.1592,210.6712 C1054.6672,200.7042 1051.3572,191.9742 1044.2282,184.4812 C1035.3522,175.0242 1022.1852,170.1492 1004.7242,169.8582" id="Fill-7"></path>
            <path d="M172.7877,48.7002 C172.7877,48.6882 172.7757,48.7122 172.7517,48.7712 C172.7397,48.7952 172.7347,48.8132 172.7347,48.8242 C172.7107,48.8722 172.6807,48.9132 172.6457,48.9492 L172.6457,48.9672 L172.6277,48.9842 C172.5927,49.0312 172.5517,49.0782 172.5047,49.1242 C172.5077,49.1222 172.5077,49.1222 172.5037,49.1262 C172.5037,49.1262 172.5047,49.1252 172.5047,49.1242 C172.5007,49.1282 172.4897,49.1402 172.4677,49.1622 C172.4327,49.1862 172.3907,49.2092 172.3437,49.2332 C172.3317,49.2452 172.3137,49.2572 172.2907,49.2692 C172.2547,49.2922 172.2127,49.3162 172.1657,49.3392 L172.1477,49.3392 C172.1357,49.3392 172.1307,49.3462 172.1307,49.3572 C172.1307,49.3462 172.1237,49.3462 172.1127,49.3572 C172.0887,49.3692 172.0527,49.3812 172.0057,49.3932 L171.9527,49.3932 C171.8927,49.4052 171.8337,49.4102 171.7747,49.4102 C171.7277,49.4102 171.6747,49.4052 171.6147,49.3932 L171.5617,49.3932 C171.5147,49.3812 171.4727,49.3692 171.4377,49.3572 C171.4257,49.3462 171.4197,49.3462 171.4197,49.3572 C171.4197,49.3462 171.4137,49.3392 171.4017,49.3392 C171.3427,49.3162 171.2957,49.2922 171.2597,49.2692 C171.2357,49.2572 171.2177,49.2452 171.2067,49.2332 C171.1707,49.2092 171.1357,49.1862 171.0997,49.1622 C171.0647,49.1262 171.0527,49.1152 171.0647,49.1262 C171.0167,49.0792 170.9697,49.0322 170.9227,48.9842 L170.9227,48.9672 C170.9107,48.9672 170.9047,48.9612 170.9047,48.9492 C170.8807,48.9132 170.8567,48.8722 170.8337,48.8242 C170.8337,48.8132 170.8217,48.7952 170.7977,48.7712 C170.7857,48.7122 170.7797,48.6882 170.7797,48.7002 L163.5677,28.1642 L156.3547,48.7002 C156.3547,48.6882 156.3427,48.7122 156.3197,48.7712 C156.3077,48.7952 156.3017,48.8132 156.3017,48.8242 C156.2777,48.8722 156.2487,48.9132 156.2127,48.9492 L156.2127,48.9672 L156.1947,48.9842 C156.1597,49.0322 156.1177,49.0792 156.0707,49.1262 C156.0737,49.1232 156.0747,49.1222 156.0747,49.1222 C156.0747,49.1222 156.0737,49.1232 156.0707,49.1262 C156.0647,49.1322 156.0527,49.1442 156.0357,49.1622 C155.9997,49.1862 155.9637,49.2092 155.9287,49.2332 C155.9047,49.2452 155.8867,49.2572 155.8757,49.2692 C155.8277,49.2922 155.7807,49.3162 155.7337,49.3392 L155.7157,49.3392 L155.6977,49.3572 C155.7087,49.3462 155.7037,49.3462 155.6797,49.3572 C155.6557,49.3692 155.6207,49.3812 155.5737,49.3932 L155.5197,49.3932 C155.4607,49.4052 155.4017,49.4102 155.3427,49.4102 C155.2947,49.4102 155.2417,49.4052 155.1827,49.3932 L155.1287,49.3932 C155.0817,49.3812 155.0407,49.3692 155.0047,49.3572 C154.9987,49.3512 154.9957,49.3482 154.9957,49.3482 C154.9957,49.3482 154.9987,49.3512 155.0047,49.3572 L154.9867,49.3392 L154.9697,49.3392 C154.9217,49.3162 154.8737,49.2922 154.8267,49.2692 C154.8027,49.2572 154.7857,49.2452 154.7737,49.2332 C154.7387,49.2092 154.7027,49.1862 154.6677,49.1622 C154.6317,49.1262 154.6197,49.1152 154.6317,49.1262 C154.5837,49.0792 154.5427,49.0322 154.5077,48.9842 C154.4957,48.9842 154.4897,48.9782 154.4897,48.9672 L154.4717,48.9492 C154.4477,48.9132 154.4247,48.8722 154.4007,48.8242 C154.4007,48.8132 154.3947,48.7952 154.3827,48.7712 C154.3587,48.7122 154.3477,48.6882 154.3477,48.7002 L146.1397,25.3032 C146.0337,25.0192 146.0447,24.7472 146.1757,24.4862 C146.3057,24.2142 146.5067,24.0302 146.7797,23.9352 C147.0637,23.8412 147.3357,23.8582 147.5967,23.9892 C147.8567,24.1192 148.0407,24.3202 148.1477,24.5932 L155.3427,45.1292 L162.5547,24.5932 C162.5427,24.6282 162.5547,24.6112 162.5907,24.5392 C162.6017,24.5042 162.6137,24.4682 162.6257,24.4332 C162.6497,24.4092 162.6677,24.3862 162.6797,24.3622 C162.7027,24.3262 162.7267,24.2972 162.7507,24.2732 C162.7737,24.2372 162.7977,24.2142 162.8217,24.2022 C162.8447,24.1782 162.8687,24.1552 162.8927,24.1312 C162.9157,24.1072 162.9397,24.0842 162.9637,24.0602 C162.9987,24.0362 163.0347,24.0182 163.0697,24.0062 C163.0937,23.9952 163.1237,23.9832 163.1587,23.9712 C163.1907,23.9572 163.2127,23.9472 163.2247,23.9412 C163.1977,23.9472 163.1927,23.9452 163.2127,23.9352 C163.2417,23.9282 163.2457,23.9302 163.2247,23.9412 C163.2317,23.9392 163.2387,23.9382 163.2477,23.9352 C163.2837,23.9242 163.3187,23.9122 163.3547,23.9002 C163.4017,23.9002 163.4367,23.8942 163.4607,23.8822 L163.5677,23.8822 L163.6737,23.8822 C163.6857,23.8942 163.7157,23.9002 163.7627,23.9002 C163.8097,23.9122 163.8457,23.9242 163.8697,23.9352 C163.9167,23.9472 163.9347,23.9472 163.9227,23.9352 L163.9407,23.9532 C163.9517,23.9532 163.9637,23.9592 163.9767,23.9712 C164.0117,23.9832 164.0407,23.9952 164.0647,24.0062 C164.1007,24.0302 164.1297,24.0482 164.1537,24.0602 C164.1777,24.0842 164.2067,24.1072 164.2427,24.1312 C164.2667,24.1552 164.2897,24.1782 164.3137,24.2022 C164.3377,24.2262 164.3607,24.2492 164.3847,24.2732 C164.4087,24.2972 164.4257,24.3262 164.4377,24.3622 C164.4617,24.3862 164.4797,24.4092 164.4917,24.4332 C164.5147,24.4682 164.5327,24.5042 164.5447,24.5392 C164.5797,24.6112 164.5857,24.6282 164.5627,24.5932 L171.7747,45.1292 L178.9877,24.5932 C179.0827,24.3202 179.2657,24.1192 179.5387,23.9892 C179.7987,23.8582 180.0647,23.8412 180.3377,23.9352 C180.6217,24.0302 180.8287,24.2142 180.9597,24.4862 C181.0777,24.7472 181.0897,25.0192 180.9947,25.3032 L172.7877,48.7002 Z M163.5627,13.4362 C151.6127,13.4362 141.9257,23.1232 141.9257,35.0732 C141.9257,47.0232 151.6127,56.7102 163.5627,56.7102 C175.5127,56.7102 185.2007,47.0232 185.2007,35.0732 C185.2007,23.1232 175.5127,13.4362 163.5627,13.4362 L163.5627,13.4362 Z" id="Fill-10"></path>
            <path d="M172.5052,49.1246 C172.5042,49.1256 172.5042,49.1256 172.5032,49.1266 L172.5052,49.1246" id="Fill-12"></path>
            <path d="M163.2122,23.9356 C163.1932,23.9456 163.1972,23.9466 163.2252,23.9406 C163.2452,23.9306 163.2412,23.9286 163.2122,23.9356" id="Fill-14"></path>
            <path d="M314.9521,173.0514 C314.9521,173.7314 314.3951,174.2884 313.7151,174.2884 L307.5321,174.2884 L307.5321,188.3694 C307.5321,189.6504 306.7791,190.8524 305.5781,191.2974 C303.5471,192.0504 301.5411,190.4544 301.5411,188.4914 L301.5411,137.8814 L301.5411,137.8274 C301.5411,136.7654 302.0691,135.7454 302.9901,135.2184 C305.1801,133.9664 307.5321,135.6604 307.5321,137.7864 L307.5321,152.6454 L313.7151,152.6454 C314.3951,152.6454 314.9521,153.2024 314.9521,153.8824 L314.9521,173.0514 Z M289.1741,188.4914 L289.1741,202.9654 L288.0381,204.1744 C287.9371,204.2814 277.7841,214.9654 258.2051,225.4944 C240.1841,235.1854 210.2251,246.7384 169.8431,246.7384 C129.2111,246.7384 95.8371,235.1594 74.9941,225.4464 C52.3011,214.8714 39.0961,204.1404 38.9651,204.0334 L38.1451,203.3584 L38.1451,188.4914 L38.1451,137.8814 C38.1451,136.7514 38.1631,135.6234 38.1931,134.4974 L39.8051,132.5494 C39.9331,132.3934 52.9141,116.8404 75.4911,101.3144 C88.7411,92.2034 102.5931,84.9484 116.6611,79.7534 C134.1591,73.2914 152.0521,70.0144 169.8431,70.0144 C187.4911,70.0144 204.6181,73.2094 220.7471,79.5094 C233.6971,84.5684 246.0561,91.6344 257.4821,100.5114 C277.0811,115.7404 287.2641,131.2234 287.3601,131.3704 L289.1101,134.0774 C289.1481,135.3424 289.1741,136.6104 289.1741,137.8814 L289.1741,188.4914 Z M289.1741,242.9864 C284.3231,247.5024 271.6091,258.3744 251.7721,268.5734 C225.0001,282.3364 196.3261,289.3154 166.5451,289.3154 C129.8601,289.3154 97.3281,277.0044 76.4961,266.6774 C56.6751,256.8504 42.9791,246.7234 38.1451,242.7994 L38.1451,218.7664 C44.5431,223.1684 55.1471,229.8084 69.3651,236.4664 C91.4201,246.7944 126.7541,259.1054 169.8431,259.1054 C213.0901,259.1054 245.2421,246.5934 264.5991,236.0964 C275.5651,230.1504 283.7551,224.1984 289.1741,219.7704 L289.1741,242.9864 Z M272.4241,289.8524 C269.6191,292.4684 262.6861,298.1614 250.3721,303.8094 C222.3101,316.6794 188.4991,319.3804 165.0771,319.3804 C122.5401,319.3804 94.4901,310.9344 78.4491,303.8484 C65.7511,298.2384 58.3891,292.5814 55.3591,289.9554 L55.3591,269.3184 C60.1091,272.0934 65.3461,274.9534 71.0031,277.7574 C93.0191,288.6714 127.4651,301.6824 166.5451,301.6824 C198.3121,301.6824 228.8891,294.2434 257.4261,279.5724 C262.9321,276.7414 267.9361,273.8494 272.4241,271.0314 L272.4241,289.8524 Z M75.0201,49.2424 C98.8001,25.4634 130.2791,12.3674 163.6601,12.3674 C197.0401,12.3674 228.5191,25.4634 252.2991,49.2424 C269.3381,66.2814 280.8891,87.2744 286.0701,110.0864 C280.9111,104.4564 274.0441,97.7604 265.4601,91.0504 C253.0721,81.3664 239.6411,73.6464 225.5391,68.1044 C207.8821,61.1654 189.1441,57.6474 169.8431,57.6474 C150.5851,57.6474 131.2511,61.1824 112.3771,68.1514 C97.3461,73.7024 82.5791,81.4314 68.4841,91.1244 C56.3871,99.4434 46.9221,107.7244 40.4351,113.9814 C45.1431,89.6664 57.0161,67.2464 75.0201,49.2424 L75.0201,49.2424 Z M25.7781,137.8814 L25.7781,188.4914 C25.7781,190.4544 23.7731,192.0504 21.7421,191.2974 C20.5401,190.8524 19.7871,189.6504 19.7871,188.3684 L19.7871,174.2884 L13.6041,174.2884 C12.9241,174.2884 12.3671,173.7314 12.3671,173.0514 L12.3671,153.8824 C12.3671,153.2024 12.9241,152.6454 13.6041,152.6454 L19.7871,152.6454 L19.7871,137.9094 C19.7871,136.6284 20.5401,135.4264 21.7421,134.9814 C23.7731,134.2284 25.7781,135.8234 25.7781,137.7864 L25.7781,137.8814 Z M319.8991,141.7664 L319.8991,138.0414 C319.8991,130.0294 313.8591,123.1634 305.8751,122.4814 C304.0861,122.3284 302.3531,122.4854 300.7231,122.9034 C299.2791,109.6344 295.9171,96.7104 290.6571,84.3284 C283.6891,67.9264 273.7251,53.1794 261.0441,40.4974 C248.3621,27.8164 233.6151,17.8524 217.2131,10.8844 C200.2131,3.6624 182.1951,0.0004 163.6591,0.0004 C145.1231,0.0004 127.1061,3.6624 110.1061,10.8844 C93.7041,17.8524 78.9571,27.8164 66.2751,40.4974 C53.5931,53.1794 43.6301,67.9264 36.6621,84.3284 C31.4021,96.7104 28.0401,109.6344 26.5961,122.9034 C24.9681,122.4864 23.2371,122.3284 21.4491,122.4814 C13.4631,123.1614 7.4201,130.0274 7.4201,138.0424 L7.4201,141.7664 C3.0191,144.0224 0.0001,148.6064 0.0001,153.8824 L0.0001,173.0514 C0.0001,178.3274 3.0191,182.9114 7.4201,185.1674 L7.4201,188.2474 C7.4201,195.6004 12.5081,202.0914 19.7161,203.5464 C21.8211,203.9714 23.8611,203.9394 25.7781,203.5594 L25.7781,248.1794 L27.5891,249.9904 C29.3391,251.7404 34.7651,256.1264 42.9921,261.6074 L42.9921,295.0454 L44.6271,296.8214 C45.9411,298.2474 77.8041,331.7484 165.0771,331.7484 C252.5121,331.7484 282.1181,297.8164 283.3361,296.3724 L284.7921,294.6454 L284.7921,262.5844 C293.1741,256.3574 298.2551,251.4644 299.7301,249.9904 L301.5411,248.1784 L301.5411,203.5594 C303.4621,203.9404 305.5081,203.9714 307.6161,203.5434 C314.8181,202.0834 319.8991,195.5944 319.8991,188.2464 L319.8991,185.1674 C324.3001,182.9114 327.3191,178.3274 327.3191,173.0514 L327.3191,153.8824 C327.3191,148.6064 324.3001,144.0224 319.8991,141.7664 L319.8991,141.7664 Z" id="Fill-16"></path>
            <path d="M63.7637,155.6568 C62.8617,155.6568 61.9467,155.4588 61.0797,155.0408 C58.0047,153.5558 56.7147,149.8588 58.1997,146.7838 C58.4547,146.2558 64.6237,133.6968 80.3687,120.2748 C98.0717,105.1838 112.0887,103.5738 121.3647,102.5078 L122.1417,102.4178 C125.5337,102.0238 128.6037,104.4538 128.9977,107.8458 C129.3927,111.2388 126.9617,114.3078 123.5697,114.7028 L122.7767,114.7938 C114.5267,115.7418 103.2267,117.0408 88.3917,129.6868 C74.6067,141.4368 69.3877,152.0548 69.3367,152.1598 C68.2697,154.3688 66.0627,155.6568 63.7637,155.6568" id="Fill-19" opacity="0.478719683"></path>
            <path d="M58.9309,168.0836 C58.1859,168.0836 57.4319,167.8806 56.7549,167.4536 L54.0509,165.7526 C52.1379,164.5486 51.5629,162.0216 52.7679,160.1086 C53.9709,158.1956 56.4989,157.6206 58.4109,158.8246 L61.1149,160.5256 C63.0279,161.7306 63.6029,164.2566 62.3989,166.1706 C61.6209,167.4056 60.2909,168.0836 58.9309,168.0836" id="Fill-21" opacity="0.478719683"></path>
        </g>
    </g>
</svg>