<?xml version="1.0" encoding="UTF-8" standalone="no"?>
<svg width="1267px" height="1330px" viewBox="0 0 1267 1330" version="1.1" xmlns="http://www.w3.org/2000/svg" xmlns:xlink="http://www.w3.org/1999/xlink">
    <!-- Generator: Sketch 39.1 (31720) - http://www.bohemiancoding.com/sketch -->
    <title>waaws-brand-copy</title>
    <desc>Created with Sketch.</desc>
    <defs>
        <polygon id="path-1" points="0.866649187 575 547.3324 575 547.3324 0.0354397165 0.866649187 0.0354397165 0.866649187 575"></polygon>
    </defs>
    <g id="assets" stroke="none" stroke-width="1" fill="none" fill-rule="evenodd">
        <g id="waaws-brand-copy" transform="translate(0.000000, -1.000000)">
            <g id="Group-3" transform="translate(17.000000, 755.730000)">
                <mask id="mask-2" fill="white">
                    <use xlink:href="#path-1"></use>
                </mask>
                <g id="Clip-2"></g>
                <path d="M343.5674,133.5083 C316.1004,212.6773 298.3574,283.3773 281.2664,332.8033 L281.2574,332.8013 C278.3564,341.1913 275.4704,348.9493 272.5624,356.0473 L272.5844,356.0503 C259.8854,387.0653 246.7014,405.1953 229.3354,405.1953 C210.8114,405.1953 207.7234,358.8853 207.7234,358.8853 L0.8714,361.9723 C0.8714,361.9723 -2.2166,575.0003 149.0644,575.0003 C254.0344,575.0003 313.2794,527.7193 349.7424,334.1863 C389.8774,121.1593 408.4014,34.7133 547.3324,34.7133 L547.3324,0.7523 C547.3324,0.7523 396.0524,-17.7717 343.5674,133.5083" id="Fill-1" fill="#010201" mask="url(#mask-2)"></path>
            </g>
            <path d="M694.8035,93.8369 C695.8115,93.3329 696.8425,93.2649 697.8975,93.6309 C698.9975,93.9989 699.7995,94.7089 700.3035,95.7619 C700.7615,96.7709 700.8075,97.8249 700.4405,98.9249 L668.6795,189.4689 C668.6795,189.4229 668.6325,189.5149 668.5415,189.7439 C668.4945,189.8359 668.4725,189.9039 668.4725,189.9499 C668.3795,190.1329 668.2665,190.2939 668.1285,190.4309 L668.1285,190.4999 L668.0605,190.5689 C667.9245,190.7499 667.7655,190.9309 667.5855,191.1109 C667.5965,191.1009 667.5965,191.1009 667.5795,191.1179 C667.5965,191.1009 667.5965,191.1009 667.5855,191.1109 C667.5705,191.1269 667.5245,191.1719 667.4405,191.2549 C667.3035,191.3489 667.1425,191.4399 666.9595,191.5309 C666.9145,191.5769 666.8455,191.6239 666.7535,191.6689 C666.6165,191.7609 666.4545,191.8519 666.2725,191.9429 L666.2035,191.9429 C666.1575,191.9429 666.1345,191.9669 666.1345,192.0119 C666.1345,191.9669 666.1115,191.9669 666.0665,192.0119 C665.9735,192.0579 665.8365,192.1049 665.6545,192.1499 L665.4485,192.1499 C665.2175,192.1959 664.9885,192.2179 664.7605,192.2179 C664.5765,192.2179 664.3705,192.1959 664.1405,192.1499 L663.9345,192.1499 C663.7515,192.1049 663.5915,192.0579 663.4545,192.0119 C663.4075,191.9669 663.3855,191.9669 663.3855,192.0119 C663.3855,191.9669 663.3615,191.9429 663.3165,191.9429 C663.0865,191.8519 662.9035,191.7609 662.7665,191.6689 C662.6735,191.6239 662.6055,191.5769 662.5605,191.5309 C662.4225,191.4399 662.2855,191.3489 662.1475,191.2549 C662.0095,191.1179 661.9635,191.0729 662.0095,191.1179 C661.8265,190.9359 661.6425,190.7519 661.4595,190.5689 L661.4595,190.4999 C661.4145,190.4999 661.3915,190.4779 661.3915,190.4309 C661.2995,190.2939 661.2075,190.1329 661.1165,189.9499 C661.1165,189.9039 661.0705,189.8359 660.9795,189.7439 C660.9325,189.5149 660.9095,189.4229 660.9095,189.4689 L632.9975,109.9939 L605.0855,189.4689 C605.0855,189.4229 605.0395,189.5149 604.9485,189.7439 C604.9015,189.8359 604.8795,189.9039 604.8795,189.9499 C604.7865,190.1329 604.6725,190.2939 604.5345,190.4309 L604.5345,190.4999 L604.4665,190.5689 C604.3285,190.7519 604.1685,190.9359 603.9855,191.1179 C603.9965,191.1069 604.0025,191.1009 604.0025,191.1009 C604.0025,191.1009 603.9965,191.1069 603.9855,191.1179 C603.9625,191.1409 603.9175,191.1869 603.8485,191.2549 C603.7105,191.3489 603.5725,191.4399 603.4355,191.5309 C603.3425,191.5769 603.2735,191.6239 603.2295,191.6689 C603.0455,191.7609 602.8615,191.8519 602.6795,191.9429 L602.6105,191.9429 L602.5415,192.0119 C602.5865,191.9669 602.5635,191.9669 602.4725,192.0119 C602.3805,192.0579 602.2425,192.1049 602.0605,192.1499 L601.8545,192.1499 C601.6245,192.1959 601.3955,192.2179 601.1665,192.2179 C600.9825,192.2179 600.7765,192.1959 600.5475,192.1499 L600.3415,192.1499 C600.1575,192.1049 599.9975,192.0579 599.8605,192.0119 C599.8375,191.9899 599.8255,191.9779 599.8255,191.9779 C599.8255,191.9779 599.8375,191.9899 599.8605,192.0119 L599.7915,191.9429 L599.7225,191.9429 C599.5395,191.8519 599.3555,191.7609 599.1725,191.6689 C599.0805,191.6239 599.0115,191.5769 598.9665,191.5309 C598.8285,191.4399 598.6915,191.3489 598.5545,191.2549 C598.4165,191.1179 598.3705,191.0729 598.4165,191.1179 C598.2325,190.9359 598.0725,190.7519 597.9355,190.5689 C597.8885,190.5689 597.8665,190.5459 597.8665,190.4999 L597.7975,190.4309 C597.7055,190.2939 597.6145,190.1329 597.5225,189.9499 C597.5225,189.9039 597.4995,189.8359 597.4545,189.7439 C597.3615,189.5149 597.3165,189.4229 597.3165,189.4689 L565.5545,98.9249 C565.1415,97.8249 565.1865,96.7709 565.6915,95.7619 C566.1955,94.7089 566.9745,93.9989 568.0285,93.6309 C569.1285,93.2649 570.1825,93.3329 571.1915,93.8369 C572.1995,94.3419 572.9105,95.1209 573.3225,96.1749 L601.1665,175.6499 L629.0795,96.1749 C629.0325,96.3119 629.0795,96.2439 629.2165,95.9679 C629.2615,95.8309 629.3085,95.6929 629.3545,95.5559 C629.4455,95.4639 629.5145,95.3729 629.5605,95.2809 C629.6515,95.1439 629.7425,95.0299 629.8345,94.9369 C629.9265,94.7999 630.0175,94.7089 630.1095,94.6619 C630.2015,94.5709 630.2935,94.4799 630.3855,94.3869 C630.4765,94.2949 630.5675,94.2049 630.6605,94.1119 C630.7975,94.0209 630.9355,93.9519 631.0725,93.9059 C631.1635,93.8609 631.2795,93.8149 631.4165,93.7679 C631.5385,93.7159 631.6235,93.6769 631.6725,93.6519 C631.5655,93.6749 631.5475,93.6689 631.6225,93.6309 C631.7355,93.6029 631.7515,93.6099 631.6725,93.6519 C631.6975,93.6459 631.7255,93.6399 631.7605,93.6309 C631.8975,93.5859 632.0345,93.5399 632.1725,93.4939 C632.3555,93.4939 632.4935,93.4709 632.5855,93.4249 L632.9975,93.4249 L633.4095,93.4249 C633.4545,93.4709 633.5705,93.4939 633.7535,93.4939 C633.9365,93.5399 634.0745,93.5859 634.1665,93.6309 C634.3485,93.6769 634.4175,93.6769 634.3725,93.6309 L634.4405,93.6999 C634.4865,93.6999 634.5325,93.7229 634.5795,93.7679 C634.7165,93.8149 634.8305,93.8609 634.9225,93.9059 C635.0605,93.9989 635.1735,94.0669 635.2665,94.1119 C635.3575,94.2049 635.4725,94.2949 635.6095,94.3869 C635.7015,94.4799 635.7935,94.5709 635.8855,94.6619 C635.9765,94.7539 636.0675,94.8459 636.1605,94.9369 C636.2515,95.0299 636.3205,95.1439 636.3665,95.2809 C636.4575,95.3729 636.5265,95.4639 636.5725,95.5559 C636.6635,95.6929 636.7325,95.8309 636.7795,95.9679 C636.9165,96.2439 636.9395,96.3119 636.8485,96.1749 L664.7605,175.6499 L692.6725,96.1749 C693.0395,95.1209 693.7485,94.3419 694.8035,93.8369 M632.9805,52.9979 C586.7345,52.9979 549.2455,90.4869 549.2455,136.7329 C549.2455,182.9789 586.7345,220.4679 632.9805,220.4679 C679.2255,220.4679 716.7155,182.9789 716.7155,136.7329 C716.7155,90.4869 679.2255,52.9979 632.9805,52.9979" id="Fill-4" fill="#010201"></path>
            <path d="M631.6226,93.6309 C631.5476,93.6689 631.5656,93.6749 631.6726,93.6519 C631.7516,93.6099 631.7356,93.6029 631.6226,93.6309" id="Fill-6" fill="#010201"></path>
            <path d="M246.3354,1153.4263 C248.9874,1153.4263 251.6024,1152.7703 254.1974,1151.4443 C247.8614,1147.6393 242.2164,1144.0013 237.2444,1140.6133 C239.8054,1148.1833 243.0384,1153.4263 246.3354,1153.4263" id="Fill-8" fill="#010201"></path>
            <g id="Group-12" transform="translate(0.000000, 0.730000)" fill="#010201">
                <path d="M1218.8479,669.9712 C1218.8479,672.6032 1216.6939,674.7572 1214.0619,674.7572 L1190.1319,674.7572 L1190.1319,729.2492 C1190.1319,734.2072 1187.2179,738.8582 1182.5689,740.5812 C1174.7099,743.4952 1166.9479,737.3222 1166.9479,729.7252 L1166.9479,533.8672 L1166.9479,533.6572 C1166.9479,529.5482 1168.9899,525.5972 1172.5569,523.5582 C1181.0319,518.7152 1190.1319,525.2702 1190.1319,533.4972 L1190.1319,591.0012 L1214.0619,591.0012 C1216.6939,591.0012 1218.8479,593.1552 1218.8479,595.7872 L1218.8479,669.9712 Z M1027.3179,352.6322 C979.3769,315.1572 927.3969,285.2802 872.8229,263.8332 C804.4949,236.9802 731.9769,223.3652 657.2819,223.3652 C582.7569,223.3652 507.9349,237.0422 434.8919,264.0152 C376.7259,285.4962 319.5749,315.4062 265.0279,352.9182 C218.2149,385.1102 181.5879,417.1592 156.4799,441.3742 C174.7019,347.2752 220.6509,260.5122 290.3249,190.8382 C382.3499,98.8132 504.1739,48.1332 633.3549,48.1332 C762.5359,48.1332 884.3579,98.8132 976.3839,190.8382 C1042.3229,256.7772 1087.0249,338.0182 1107.0749,426.3022 C1087.1119,404.5122 1060.5349,378.5972 1027.3179,352.6322 L1027.3179,352.6322 Z M99.7609,533.8672 L99.7609,729.7252 C99.7609,737.3212 92.0009,743.4942 84.1409,740.5822 C79.4909,738.8592 76.5769,734.2062 76.5769,729.2472 L76.5769,674.7572 L52.6469,674.7572 C50.0139,674.7572 47.8599,672.6032 47.8599,669.9712 L47.8599,595.7872 C47.8599,593.1552 50.0139,591.0012 52.6469,591.0012 L76.5769,591.0012 L76.5769,533.9742 C76.5769,529.0162 79.4909,524.3642 84.1409,522.6412 C92.0009,519.7302 99.7609,525.9012 99.7609,533.4972 L99.7609,533.8672 Z M1237.9919,548.9012 L1237.9919,534.4862 C1237.9919,503.4772 1214.6179,476.9092 1183.7219,474.2682 C1176.7959,473.6762 1170.0889,474.2852 1163.7819,475.9022 C1158.1949,424.5512 1145.1849,374.5352 1124.8269,326.6172 C1097.8599,263.1422 1059.3029,206.0732 1010.2259,156.9942 C961.1469,107.9172 904.0789,69.3602 840.6029,42.3932 C774.8159,14.4432 705.0869,0.2722 633.3539,0.2722 C561.6209,0.2722 491.8929,14.4432 426.1039,42.3932 C362.6289,69.3602 305.5599,107.9172 256.4829,156.9942 C207.4039,206.0732 168.8479,263.1422 141.8809,326.6172 C121.5239,374.5352 108.5129,424.5512 102.9259,475.9012 C96.6269,474.2872 89.9269,473.6772 83.0069,474.2662 C52.1029,476.8982 28.7159,503.4712 28.7159,534.4872 L28.7159,548.9012 C11.6829,557.6292 -0.0001,575.3692 -0.0001,595.7872 L-0.0001,669.9712 C-0.0001,690.3892 11.6829,708.1302 28.7159,716.8582 L28.7159,728.7772 C28.7159,757.2352 48.4049,782.3562 76.3009,787.9842 C84.4449,789.6282 92.3429,789.5062 99.7609,788.0352 L99.7609,960.7122 L106.7699,967.7212 C113.5419,974.4922 134.5399,991.4672 166.3759,1012.6782 L166.3759,1107.2562 L214.2369,1106.5412 L214.2369,1042.5172 C232.6179,1053.2582 252.8869,1064.3252 274.7799,1075.1782 C280.2669,1077.8982 285.9579,1080.6522 291.8359,1083.4252 L292.2569,1082.2072 C296.8549,1068.6952 301.4829,1053.7622 306.4089,1037.3562 C302.8759,1035.6592 299.4139,1033.9712 296.0379,1032.2982 C219.3299,994.2702 166.3259,955.0782 147.6209,939.8932 L147.6209,846.8872 C172.3789,863.9212 213.4169,889.6192 268.4389,915.3852 C287.9199,924.5072 310.0869,934.0292 334.6679,943.2932 C339.2829,928.5402 344.2019,913.3182 349.4819,897.7342 C327.5779,889.4162 307.7539,880.9062 290.2219,872.7362 C202.4029,831.8112 151.2989,790.2852 150.7929,789.8692 L147.6209,787.2592 L147.6209,729.7252 L147.6209,533.8672 C147.6209,529.4912 147.6899,525.1272 147.8059,520.7682 L154.0429,513.2302 C154.5399,512.6292 204.7749,452.4372 292.1459,392.3532 C343.4249,357.0922 397.0289,329.0172 451.4719,308.9122 C519.1899,283.9062 588.4329,271.2252 657.2819,271.2252 C725.5799,271.2252 791.8599,283.5882 854.2789,307.9702 C904.3939,327.5452 952.2229,354.8902 996.4409,389.2462 C1072.2899,448.1802 1111.6979,508.0982 1112.0689,508.6682 L1118.8419,519.1432 C1118.9889,524.0412 1119.0879,528.9472 1119.0879,533.8672 L1119.0879,729.7252 L1119.0879,785.7372 L1114.6909,790.4152 C1114.3029,790.8282 1075.0119,832.1742 999.2409,872.9232 C929.4989,910.4272 813.5589,955.1342 657.2819,955.1342 C564.3389,955.1342 481.2129,939.4772 412.1089,918.9112 C407.7549,932.8702 403.6609,948.2192 399.6399,965.1262 C472.3879,986.6742 559.6919,1002.9942 657.2819,1002.9942 C824.6489,1002.9942 949.0759,954.5732 1023.9849,913.9532 C1066.4219,890.9412 1098.1189,867.9082 1119.0879,850.7722 L1119.0879,940.6142 C1100.3159,958.0952 1051.1139,1000.1682 974.3439,1039.6362 C870.7399,1092.8982 759.7719,1119.9052 644.5189,1119.9052 C544.3809,1119.9052 452.2409,1096.2012 378.3449,1068.2082 C376.9619,1075.4762 375.5539,1082.9262 374.1129,1090.5752 C372.4749,1099.2652 370.7859,1107.6702 369.0469,1115.8162 C446.0519,1144.2152 541.0899,1167.7652 644.5189,1167.7652 C767.4579,1167.7652 885.7889,1138.9772 996.2259,1082.2012 C1017.5319,1071.2472 1036.8989,1060.0542 1054.2679,1049.1502 L1054.2679,1121.9842 C1043.4109,1132.1092 1016.5799,1154.1412 968.9269,1175.9972 C860.3289,1225.8042 729.4829,1236.2582 638.8399,1236.2582 C508.2609,1236.2582 412.9649,1215.6902 348.1529,1193.4972 C342.5339,1209.9712 336.4929,1224.7692 329.9839,1238.0092 C402.6449,1263.3082 503.5309,1284.1182 638.8399,1284.1182 C977.2069,1284.1182 1091.7839,1152.8052 1096.4949,1147.2162 L1102.1289,1140.5332 L1102.1289,1016.4582 C1134.5669,992.3622 1154.2329,973.4262 1159.9389,967.7202 L1166.9479,960.7102 L1166.9479,788.0352 C1174.3819,789.5092 1182.3009,789.6282 1190.4599,787.9742 C1218.3299,782.3222 1237.9919,757.2132 1237.9919,728.7752 L1237.9919,716.8582 C1255.0249,708.1302 1266.7079,690.3892 1266.7079,669.9712 L1266.7079,595.7872 C1266.7079,575.3692 1255.0249,557.6292 1237.9919,548.9012 L1237.9919,548.9012 Z" id="Fill-10"></path>
            </g>
            <path d="M218.6445,1126.8135 C218.3805,1125.1615 218.1565,1123.6055 217.9775,1122.2175 L214.2365,1122.2725 L214.2365,1123.1145 C215.5045,1124.2125 216.9805,1125.4565 218.6445,1126.8135" id="Fill-13" fill="#010201"></path>
            <path d="M664.654,726.055 C648.341,719.315 619.352,719.315 603.086,726.055 C535.077,754.379 464,772.765 464,846.691 C464,846.691 478.905,827.831 510.583,815.868 L516.613,846.691 C516.613,846.691 542.959,822.735 565.458,806.595 L563.844,833.432 C574.383,821.659 604.667,803.209 604.667,803.209 L633.862,838.844 L661.948,803.81 C667.297,807.165 692.329,822.924 701.744,833.432 L700.051,805.014 C722.931,821.121 751.128,846.691 751.128,846.691 C753.96,843.844 757.093,815.899 757.093,815.868 L757.14,815.868 C788.819,827.831 803.661,846.691 803.661,846.691 C803.661,768.525 732.677,754.379 664.654,726.055" id="Fill-15" fill="#010201"></path>
            <path d="M983.9038,613.123 C983.9038,648.582 962.0178,677.315 935.0188,677.315 L780.0698,677.315 C753.0698,677.315 731.1848,648.582 731.1848,613.123 L731.1848,546.622 C731.1848,511.18 753.0698,482.451 780.0698,482.451 L935.0188,482.451 C962.0178,482.451 983.9038,511.18 983.9038,546.622 L983.9038,549.161 L983.9038,610.601 L983.9038,613.123 Z M536.4288,613.123 C536.4288,648.582 514.5618,677.315 487.5618,677.315 L332.5958,677.315 C305.6138,677.315 283.7278,648.582 283.7278,613.123 L283.7278,599.566 L283.7278,546.622 C283.7278,511.18 305.6138,482.451 332.5958,482.451 L487.5618,482.451 C514.5618,482.451 536.4288,511.18 536.4288,546.622 L536.4288,613.123 Z M1019.5458,549.161 L1011.4088,549.161 L1011.4088,546.622 C1011.4088,523.504 1004.3248,501.457 991.4658,484.581 C977.1258,465.74 956.5468,454.937 935.0188,454.937 L780.0698,454.937 C758.5418,454.937 737.9718,465.74 723.6228,484.581 C712.6968,498.917 705.9538,516.987 704.1768,536.267 C690.8808,531.602 668.8918,526.623 635.6888,526.623 C595.1328,526.623 573.7178,534.054 563.6818,539.264 C562.3488,518.847 555.4918,499.653 544.0088,484.581 C529.6598,465.74 509.0988,454.937 487.5618,454.937 L332.5958,454.937 C311.0848,454.937 290.4898,465.74 276.1658,484.581 C264.8828,499.383 258.0528,518.137 256.5368,538.131 L247.1628,538.131 C237.0468,538.131 228.8318,546.347 228.8318,556.462 L228.8318,581.227 C228.8318,591.355 237.0468,599.566 247.1628,599.566 L256.2148,599.566 L256.2148,613.123 C256.2148,636.258 263.2888,658.296 276.1658,675.176 C290.4898,694.016 311.0848,704.825 332.5958,704.825 L487.5618,704.825 C509.0988,704.825 529.6598,694.016 544.0088,675.176 C556.8688,658.296 563.9428,636.258 563.9428,613.123 L563.9428,571.247 C573.4308,564.953 595.6738,553.901 635.1148,553.901 C666.0248,553.901 689.2428,560.696 703.6798,566.647 L703.6798,613.123 C703.6798,636.258 710.7638,658.296 723.6228,675.176 C737.9718,694.016 758.5418,704.825 780.0698,704.825 L935.0188,704.825 C956.5468,704.825 977.1258,694.016 991.4658,675.176 C1004.3248,658.296 1011.4088,636.258 1011.4088,613.123 L1011.4088,610.601 L1019.5458,610.601 C1029.6688,610.601 1037.8768,602.393 1037.8768,592.266 L1037.8768,567.509 C1037.8768,557.368 1029.6688,549.161 1019.5458,549.161 L1019.5458,549.161 Z" id="Fill-17" fill="#010201"></path>
        </g>
    </g>
</svg>