<?xml version="1.0" encoding="UTF-8" standalone="no"?>
<svg width="19px" height="19px" viewBox="0 0 19 19" version="1.1" xmlns="http://www.w3.org/2000/svg" xmlns:xlink="http://www.w3.org/1999/xlink">
    <!-- Generator: Sketch 39.1 (31720) - http://www.bohemiancoding.com/sketch -->
    <title>close</title>
    <desc>Created with Sketch.</desc>
    <defs></defs>
    <g id="assets" stroke="none" stroke-width="1" fill="none" fill-rule="evenodd">
        <path d="M8.70710678,8.29289322 L-1.29219859,8.29289322 C-1.845424,8.29289322 -2.29289322,8.74060847 -2.29289322,9.29289322 C-2.29289322,9.8490284 -1.84486697,10.2928932 -1.29219859,10.2928932 L8.70710678,10.2928932 L8.70710678,20.2921986 C8.70710678,20.845424 9.15482203,21.2928932 9.70710678,21.2928932 C10.263242,21.2928932 10.7071068,20.844867 10.7071068,20.2921986 L10.7071068,10.2928932 L20.7064121,10.2928932 C21.2596376,10.2928932 21.7071068,9.84517797 21.7071068,9.29289322 C21.7071068,8.73675804 21.2590805,8.29289322 20.7064121,8.29289322 L10.7071068,8.29289322 L10.7071068,-1.70641215 C10.7071068,-2.25963756 10.2593915,-2.70710678 9.70710678,-2.70710678 C9.1509716,-2.70710678 8.70710678,-2.25908053 8.70710678,-1.70641215 L8.70710678,8.29289322 Z" id="close" fill="#000000" transform="translate(9.707107, 9.292893) rotate(-315.000000) translate(-9.707107, -9.292893) "></path>
    </g>
</svg>