<?xml version="1.0" encoding="UTF-8" standalone="no"?>
<svg width="604px" height="587px" viewBox="0 0 604 587" version="1.1" xmlns="http://www.w3.org/2000/svg" xmlns:xlink="http://www.w3.org/1999/xlink">
    <!-- Generator: Sketch 39.1 (31720) - http://www.bohemiancoding.com/sketch -->
    <title>draw-rocket-waaws</title>
    <desc>Created with Sketch.</desc>
    <defs></defs>
    <g id="assets" stroke="none" stroke-width="1" fill="none" fill-rule="evenodd">
        <g id="draw-rocket-waaws" transform="translate(0.000000, -1.000000)">
            <polygon id="Fill-1" fill="#FCF200" points="188.501 448.477 594.601 448.477 594.601 381.977 188.501 381.977"></polygon>
            <g id="Group-44" transform="translate(0.000000, 0.833000)">
                <path d="M390.3008,481.4443 C385.3008,481.4443 381.2008,485.5443 381.2008,490.5443 L381.2008,513.9443 L302.9008,513.9443 C297.9008,513.9443 293.8008,518.0443 293.8008,523.0443 C293.8008,528.0443 297.9008,532.1443 302.9008,532.1443 L477.7008,532.1443 C482.7008,532.1443 486.8008,528.0443 486.8008,523.0443 C486.8008,518.0443 482.7008,513.9443 477.7008,513.9443 L399.4008,513.9443 L399.4008,490.5443 C399.4008,485.4443 395.3008,481.4443 390.3008,481.4443" id="Fill-2" fill="#000000"></path>
                <path d="M581.801,149.1444 L474.601,149.1444 C469.601,149.1444 465.501,153.2444 465.501,158.2444 C465.501,163.2444 469.601,167.3444 474.601,167.3444 L581.801,167.3444 C583.901,167.3444 585.601,169.0444 585.601,171.1444 L585.601,434.9444 C585.601,437.0444 583.901,438.7444 581.801,438.7444 L198.701,438.7444 C196.601,438.7444 194.901,437.0444 194.901,434.9444 L194.901,391.0444 L556.301,391.0444 C561.301,391.0444 565.401,386.9444 565.401,381.9444 C565.401,376.9444 561.787,372.8444 556.301,372.8444 C550.815,372.8444 205.063,371.6444 185.901,371.6444 C180.901,371.6444 176.801,375.7444 176.801,380.7444 L176.801,434.8444 C176.901,446.8444 186.701,456.6444 198.701,456.6444 L581.801,456.6444 C593.901,456.6444 603.701,446.8444 603.701,434.7444 L603.701,171.0444 C603.701,158.9444 593.901,149.1444 581.801,149.1444" id="Fill-4" fill="#000000"></path>
                <path d="M185.9008,353.0443 C190.9008,353.0443 195.0008,348.9443 195.0008,343.9443 L195.0008,170.9443 C195.0008,168.8443 196.7008,167.1443 198.8008,167.1443 L306.3008,167.1443 C311.3008,167.1443 315.4008,163.0443 315.4008,158.0443 C315.4008,153.0443 311.3008,148.9443 306.3008,148.9443 L198.7008,148.9443 C186.6008,148.9443 176.8008,158.7443 176.8008,170.8443 L176.8008,343.8443 C176.9008,349.0443 180.9008,353.0443 185.9008,353.0443" id="Fill-6" fill="#000000"></path>
                <path d="M389.5009,405.4443 C395.2999,405.4443 400.0009,410.1453 400.0009,415.9443 C400.0009,421.7433 395.2999,426.4443 389.5009,426.4443 C383.7019,426.4443 379.0009,421.7433 379.0009,415.9443 C379.0009,410.1453 383.7019,405.4443 389.5009,405.4443" id="Fill-8" fill="#000000"></path>
                <path d="M329.9328,302.2048 C318.3298,302.2048 307.9878,308.9738 302.9868,318.9608 C299.4588,317.8728 295.8098,317.3138 292.1618,317.3138 C271.3348,317.3138 254.3898,334.2578 254.3898,355.0858 C254.3898,359.2548 257.7748,362.6398 261.9438,362.6398 C266.1138,362.6398 269.4978,359.2548 269.4978,355.0858 C269.4978,342.5908 279.6658,332.4228 292.1608,332.4228 C296.1648,332.4228 300.0548,333.5328 303.7188,335.7238 C305.8948,337.0238 308.5688,337.1438 310.8498,336.0488 C313.1308,334.9608 314.7178,332.8008 315.0728,330.2928 C316.1228,322.8968 322.5138,317.3148 329.9318,317.3148 C337.7358,317.3148 344.1568,323.2298 344.8668,331.0638 C345.1528,334.2748 347.4428,336.9408 350.5618,337.7188 C353.6898,338.4978 356.9608,337.2128 358.7208,334.5088 C365.7318,323.7438 377.5688,317.3148 390.3658,317.3148 C403.1628,317.3148 414.9998,323.7438 422.0108,334.5088 C423.7708,337.2128 427.0498,338.4978 430.1698,337.7188 C433.2888,336.9408 435.5788,334.2748 435.8648,331.0638 C436.5748,323.2298 442.9958,317.3148 450.7998,317.3148 C458.2178,317.3148 464.6088,322.8968 465.6588,330.2928 C466.0138,332.8008 467.6008,334.9618 469.8818,336.0488 C472.1708,337.1438 474.8448,337.0238 477.0128,335.7238 C480.6768,333.5328 484.5668,332.4228 488.5708,332.4228 C501.0658,332.4228 511.2338,342.5908 511.2338,355.0858 C511.2338,359.2548 514.6178,362.6398 518.7878,362.6398 C522.9568,362.6398 526.3418,359.2548 526.3418,355.0858 C526.3418,334.2588 509.3978,317.3138 488.5698,317.3138 C484.9208,317.3138 481.2728,317.8728 477.7448,318.9608 C472.7438,308.9738 462.4018,302.2048 450.7988,302.2048 C440.2988,302.2048 431.0518,307.5078 425.6578,315.7198 C416.0798,307.0998 403.5918,302.2048 390.3638,302.2048 C377.1368,302.2048 364.6498,307.1008 355.0698,315.7198 C349.6798,307.5078 340.4338,302.2048 329.9328,302.2048" id="Fill-10" fill="#000000"></path>
                <path d="M420.5845,120.9015 C420.5845,104.2365 407.0315,90.6845 390.3675,90.6845 C373.7025,90.6845 360.1505,104.2375 360.1505,120.9015 C360.1505,137.5655 373.7025,151.1185 390.3675,151.1185 C407.0325,151.1185 420.5845,137.5655 420.5845,120.9015" id="Fill-12" fill="#000000"></path>
                <path d="M381.9468,226.7773 L381.9468,287.2123 C381.9468,291.3813 385.3308,294.7663 389.5008,294.7663 C393.6708,294.7663 397.0548,291.3813 397.0548,287.2123 L397.0548,226.7773 C397.0548,222.6073 393.6708,219.2233 389.5008,219.2233 C385.3308,219.2233 381.9468,222.6063 381.9468,226.7773" id="Fill-14" fill="#000000"></path>
                <path d="M299.7159,264.433 C299.7159,268.603 303.0999,271.987 307.2699,271.987 L329.9329,271.987 L329.9329,279.541 C329.9329,283.711 333.3169,287.095 337.4869,287.095 C341.6569,287.095 345.0409,283.711 345.0409,279.541 L345.0409,271.987 L360.1499,271.987 C364.3199,271.987 367.7039,268.603 367.7039,264.433 C367.7039,260.263 364.3199,256.879 360.1499,256.879 L314.8239,256.879 L314.8239,249.325 C314.8239,227.062 322.4459,217.733 330.5149,207.852 C337.6529,199.104 345.0419,190.054 345.0419,173.782 L345.0419,98.239 C345.0419,71.867 357.4529,58.761 358.3979,57.748 L390.3679,19.387 L422.7609,58.215 C423.2819,58.759 435.6939,71.866 435.6939,98.239 L435.6939,173.781 C435.6939,190.053 443.0819,199.104 450.2209,207.851 C458.2889,217.732 465.9109,227.061 465.9109,249.324 L465.9109,256.878 L420.5859,256.878 C416.4159,256.878 413.0309,260.262 413.0309,264.432 C413.0309,268.602 416.4159,271.986 420.5859,271.986 L435.6939,271.986 L435.6939,279.54 C435.6939,283.71 439.0779,287.094 443.2479,287.094 C447.4169,287.094 450.8019,283.71 450.8019,279.54 L450.8019,271.986 L473.4639,271.986 C477.6339,271.986 481.0179,268.602 481.0179,264.432 L481.0179,249.323 C481.0179,221.674 470.4349,208.711 461.9279,198.294 C455.4699,190.385 450.8009,184.666 450.8009,173.78 L450.8009,98.237 C450.8009,65.27 434.1889,48.28 433.9399,48.076 L396.1679,2.751 C393.2969,-0.694 387.4349,-0.694 384.5649,2.751 L347.2549,47.571 C346.5449,48.281 329.9329,65.271 329.9329,98.238 L329.9329,173.78 C329.9329,184.667 325.2639,190.385 318.8049,198.294 C310.2989,208.712 299.7149,221.675 299.7149,249.324 L299.7149,264.433 L299.7159,264.433 Z" id="Fill-16" fill="#000000"></path>
                <path d="M244.1684,549.4496 C241.6534,551.7946 235.4394,556.8976 224.4034,561.9596 C199.2524,573.4946 168.9484,575.9156 147.9554,575.9156 C109.8304,575.9156 84.6894,568.3446 70.3124,561.9936 C58.9314,556.9666 52.3334,551.8956 49.6174,549.5426 L49.6174,531.0456 C53.8744,533.5326 58.5684,536.0956 63.6394,538.6096 C83.3714,548.3916 114.2444,560.0526 149.2704,560.0526 C177.7434,560.0526 205.1484,553.3856 230.7254,540.2356 C235.6604,537.6986 240.1454,535.1066 244.1684,532.5816 L244.1684,549.4496 Z" id="Fill-18" fill="#007FE1"></path>
                <path d="M225.658,530.3779 C201.663,542.7129 175.963,548.9679 149.271,548.9679 C116.391,548.9679 87.233,537.9349 68.562,528.6789 C50.797,519.8709 38.521,510.7939 34.189,507.2769 L34.189,485.7369 C39.923,489.6819 49.427,495.6339 62.17,501.6009 C81.938,510.8579 113.607,521.8919 152.226,521.8919 C190.988,521.8919 219.806,510.6769 237.155,501.2699 C246.983,495.9399 254.324,490.6059 259.181,486.6369 L259.181,507.4449 C254.833,511.4929 243.438,521.2369 225.658,530.3779" id="Fill-20" fill="#007FE1"></path>
                <path d="M19.487,461.117 C18.41,460.718 17.735,459.64 17.735,458.492 L17.735,445.872 L12.193,445.872 C11.583,445.872 11.084,445.373 11.084,444.764 L11.084,427.583 C11.084,426.973 11.583,426.474 12.193,426.474 L17.735,426.474 L17.735,413.267 C17.735,412.118 18.41,411.041 19.487,410.642 C21.308,409.968 23.104,411.397 23.104,413.156 L23.104,413.242 L23.104,458.602 C23.104,460.362 21.308,461.792 19.487,461.117" id="Fill-22" fill="#007FE1"></path>
                <path d="M282.285,444.7635 C282.285,445.3735 281.786,445.8715 281.177,445.8715 L275.634,445.8715 L275.634,458.4925 C275.634,459.6405 274.96,460.7175 273.883,461.1165 C272.063,461.7915 270.265,460.3615 270.265,458.6025 L270.265,413.2415 L270.265,413.1935 C270.265,412.2415 270.738,411.3265 271.564,410.8545 C273.527,409.7325 275.634,411.2505 275.634,413.1565 L275.634,426.4745 L281.177,426.4745 C281.786,426.4745 282.285,426.9725 282.285,427.5825 L282.285,444.7635 Z" id="Fill-24" fill="#007FE1"></path>
                <path d="M67.1927,333.7963 C88.5057,312.4833 116.7197,300.7453 146.6387,300.7453 C176.5567,300.7453 204.7707,312.4833 226.0837,333.7963 C241.3557,349.0673 251.7087,367.8833 256.3517,388.3293 C251.7287,383.2833 245.5737,377.2813 237.8807,371.2673 C226.7767,362.5883 214.7387,355.6693 202.0997,350.7023 C186.2747,344.4823 169.4797,341.3293 152.1797,341.3293 C134.9197,341.3293 117.5917,344.4973 100.6747,350.7443 C87.2027,355.7193 73.9667,362.6463 61.3337,371.3343 C50.4917,378.7893 42.0087,386.2123 36.1947,391.8203 C40.4147,370.0273 51.0567,349.9323 67.1927,333.7963" id="Fill-26" fill="#007FE1"></path>
                <path d="M259.1805,471.5749 L258.1625,472.6579 C258.0725,472.7539 248.9725,482.3299 231.4235,491.7669 C215.2715,500.4529 188.4205,510.8069 152.2265,510.8069 C115.8095,510.8069 85.8965,500.4299 67.2155,491.7239 C46.8765,482.2459 35.0405,472.6279 34.9235,472.5319 L34.1885,471.9269 L34.1885,458.6029 L34.1885,413.2419 C34.1885,412.2279 34.2045,411.2179 34.2315,410.2079 L35.6765,408.4619 C35.7915,408.3229 47.4255,394.3829 67.6605,380.4669 C79.5375,372.3009 91.9515,365.7989 104.5605,361.1419 C120.2445,355.3509 136.2805,352.4139 152.2265,352.4139 C168.0445,352.4139 183.3945,355.2769 197.8505,360.9239 C209.4575,365.4579 220.5345,371.7909 230.7755,379.7479 C248.3425,393.3969 257.4695,407.2739 257.5555,407.4059 L259.1235,409.8319 C259.1575,410.9659 259.1805,412.1019 259.1805,413.2419 L259.1805,458.6029 L259.1805,471.5749 Z" id="Fill-28" fill="#DEF2FA"></path>
                <path d="M154.866,333.3101 C154.866,333.3001 154.855,333.3211 154.834,333.3741 C154.823,333.3951 154.818,333.4111 154.818,333.4211 C154.797,333.4641 154.77,333.5011 154.738,333.5331 L154.738,333.5491 L154.723,333.5651 C154.691,333.6071 154.654,333.6491 154.613,333.6901 C154.615,333.6881 154.615,333.6881 154.611,333.6921 L154.613,333.6901 C154.609,333.6941 154.599,333.7051 154.579,333.7241 C154.547,333.7451 154.51,333.7671 154.468,333.7881 C154.457,333.7981 154.441,333.8091 154.42,333.8201 C154.388,333.8411 154.351,333.8621 154.309,333.8831 L154.293,333.8831 C154.282,333.8831 154.277,333.8891 154.277,333.8991 C154.277,333.8891 154.271,333.8891 154.261,333.8991 C154.239,333.9101 154.208,333.9201 154.165,333.9311 L154.118,333.9311 C154.064,333.9421 154.011,333.9471 153.958,333.9471 C153.916,333.9471 153.868,333.9421 153.815,333.9311 L153.767,333.9311 C153.725,333.9201 153.688,333.9101 153.656,333.8991 C153.645,333.8891 153.64,333.8891 153.64,333.8991 C153.64,333.8891 153.634,333.8831 153.624,333.8831 C153.571,333.8621 153.528,333.8411 153.497,333.8201 C153.475,333.8091 153.459,333.7981 153.449,333.7881 C153.417,333.7671 153.385,333.7451 153.353,333.7241 C153.321,333.6921 153.311,333.6821 153.321,333.6921 L153.194,333.5651 L153.194,333.5491 C153.183,333.5491 153.178,333.5441 153.178,333.5331 C153.157,333.5011 153.136,333.4641 153.115,333.4211 C153.115,333.4111 153.104,333.3951 153.083,333.3741 C153.072,333.3211 153.067,333.3001 153.067,333.3101 L146.602,314.9041 L140.138,333.3101 C140.138,333.3001 140.127,333.3211 140.106,333.3741 C140.095,333.3951 140.09,333.4111 140.09,333.4211 C140.068,333.4641 140.042,333.5011 140.01,333.5331 L140.01,333.5491 L139.994,333.5651 C139.962,333.6071 139.925,333.6501 139.883,333.6921 C139.886,333.6891 139.887,333.6881 139.887,333.6881 C139.887,333.6881 139.886,333.6891 139.883,333.6921 C139.878,333.6971 139.867,333.7081 139.851,333.7241 C139.819,333.7451 139.787,333.7671 139.755,333.7881 C139.734,333.7981 139.718,333.8091 139.708,333.8201 C139.665,333.8411 139.623,333.8621 139.58,333.8831 L139.565,333.8831 L139.548,333.8991 C139.559,333.8891 139.554,333.8891 139.532,333.8991 C139.511,333.9101 139.479,333.9201 139.437,333.9311 L139.389,333.9311 C139.336,333.9421 139.283,333.9471 139.23,333.9471 C139.188,333.9471 139.14,333.9421 139.087,333.9311 L139.039,333.9311 C138.996,333.9201 138.959,333.9101 138.928,333.8991 C138.922,333.8941 138.92,333.8911 138.92,333.8911 C138.92,333.8911 138.922,333.8941 138.928,333.8991 L138.912,333.8831 L138.896,333.8831 C138.853,333.8621 138.81,333.8411 138.768,333.8201 C138.747,333.8091 138.731,333.7981 138.72,333.7881 C138.689,333.7671 138.657,333.7451 138.625,333.7241 L138.593,333.6921 C138.55,333.6501 138.513,333.6071 138.482,333.5651 C138.471,333.5651 138.466,333.5601 138.466,333.5491 L138.45,333.5331 C138.428,333.5011 138.407,333.4641 138.386,333.4211 C138.386,333.4111 138.381,333.3951 138.37,333.3741 C138.349,333.3211 138.338,333.3001 138.338,333.3101 L130.982,312.3401 C130.887,312.0851 130.897,311.8411 131.014,311.6081 C131.131,311.3641 131.311,311.1991 131.555,311.1141 C131.81,311.0291 132.054,311.0451 132.288,311.1621 C132.521,311.2791 132.686,311.4591 132.781,311.7031 L139.23,330.1101 L145.695,311.7031 C145.684,311.7351 145.695,311.7191 145.726,311.6551 C145.737,311.6241 145.748,311.5921 145.758,311.5601 C145.779,311.5391 145.795,311.5181 145.806,311.4961 C145.827,311.4641 145.848,311.4381 145.87,311.4161 C145.891,311.3851 145.912,311.3641 145.933,311.3531 C145.955,311.3321 145.976,311.3111 145.997,311.2891 C146.018,311.2681 146.039,311.2471 146.061,311.2251 C146.093,311.2041 146.124,311.1881 146.156,311.1781 C146.177,311.1671 146.204,311.1571 146.236,311.1461 C146.264,311.1341 146.284,311.1251 146.295,311.1191 C146.271,311.1241 146.266,311.1231 146.284,311.1141 C146.31,311.1081 146.314,311.1091 146.295,311.1191 C146.301,311.1181 146.307,311.1161 146.316,311.1141 C146.347,311.1041 146.379,311.0931 146.411,311.0821 C146.453,311.0821 146.485,311.0771 146.507,311.0661 L146.602,311.0661 L146.698,311.0661 C146.708,311.0771 146.735,311.0821 146.777,311.0821 C146.82,311.0931 146.851,311.1041 146.873,311.1141 C146.915,311.1251 146.931,311.1251 146.921,311.1141 L146.936,311.1301 C146.947,311.1301 146.958,311.1351 146.968,311.1461 C147,311.1571 147.027,311.1671 147.048,311.1781 C147.08,311.1991 147.106,311.2151 147.128,311.2251 C147.149,311.2471 147.175,311.2681 147.207,311.2891 C147.228,311.3111 147.25,311.3321 147.271,311.3531 C147.292,311.3741 147.313,311.3951 147.335,311.4161 C147.356,311.4381 147.372,311.4641 147.382,311.4961 C147.403,311.5181 147.419,311.5391 147.43,311.5601 C147.451,311.5921 147.467,311.6241 147.478,311.6551 C147.51,311.7191 147.515,311.7351 147.494,311.7031 L153.958,330.1101 L160.423,311.7031 C160.508,311.4591 160.672,311.2791 160.916,311.1621 C161.15,311.0451 161.389,311.0291 161.633,311.1141 C161.888,311.1991 162.073,311.3641 162.19,311.6081 C162.296,311.8411 162.307,312.0851 162.222,312.3401 L154.866,333.3101 Z M146.598,301.7031 C135.888,301.7031 127.205,310.3861 127.205,321.0961 C127.205,331.8071 135.888,340.4891 146.598,340.4891 C157.309,340.4891 165.991,331.8071 165.991,321.0961 C165.991,310.3861 157.309,301.7031 146.598,301.7031 L146.598,301.7031 Z" id="Fill-30" fill="#000000"></path>
                <path d="M154.6128,333.6905 L154.6108,333.6925 L154.6128,333.6905" id="Fill-32" fill="#053B4B"></path>
                <path d="M146.2837,311.1141 C146.2667,311.1231 146.2707,311.1241 146.2947,311.1191 C146.3137,311.1091 146.3097,311.1071 146.2837,311.1141" id="Fill-34" fill="#053B4B"></path>
                <path d="M282.285,444.7635 C282.285,445.3735 281.786,445.8715 281.177,445.8715 L275.634,445.8715 L275.634,458.4925 C275.634,459.6405 274.96,460.7175 273.883,461.1165 C272.063,461.7915 270.265,460.3615 270.265,458.6025 L270.265,413.2415 L270.265,413.1935 C270.265,412.2415 270.738,411.3265 271.564,410.8545 C273.527,409.7325 275.634,411.2505 275.634,413.1565 L275.634,426.4745 L281.177,426.4745 C281.786,426.4745 282.285,426.9725 282.285,427.5825 L282.285,444.7635 Z M259.181,458.6025 L259.181,471.5745 L258.162,472.6585 C258.072,472.7535 248.972,482.3295 231.424,491.7675 C215.272,500.4535 188.42,510.8075 152.226,510.8075 C115.809,510.8075 85.897,500.4295 67.215,491.7235 C46.877,482.2455 35.041,472.6285 34.924,472.5315 L34.189,471.9275 L34.189,458.6025 L34.189,413.2415 C34.189,412.2285 34.205,411.2175 34.232,410.2085 L35.676,408.4625 C35.791,408.3235 47.426,394.3825 67.661,380.4675 C79.537,372.3005 91.952,365.7985 104.561,361.1425 C120.244,355.3505 136.281,352.4145 152.226,352.4145 C168.044,352.4145 183.395,355.2775 197.851,360.9245 C209.457,365.4575 220.535,371.7905 230.776,379.7475 C248.342,393.3965 257.469,407.2735 257.555,407.4055 L259.124,409.8315 C259.158,410.9665 259.181,412.1025 259.181,413.2415 L259.181,458.6025 Z M259.181,507.4445 C254.833,511.4925 243.438,521.2375 225.658,530.3775 C201.663,542.7135 175.963,548.9685 149.271,548.9685 C116.391,548.9685 87.233,537.9345 68.562,528.6785 C50.797,519.8715 38.521,510.7945 34.189,507.2775 L34.189,485.7375 C39.923,489.6825 49.427,495.6335 62.17,501.6015 C81.938,510.8575 113.607,521.8915 152.226,521.8915 C190.988,521.8915 219.806,510.6775 237.155,501.2695 C246.983,495.9405 254.324,490.6055 259.181,486.6375 L259.181,507.4445 Z M244.168,549.4495 C241.654,551.7945 235.44,556.8975 224.403,561.9595 C199.252,573.4945 168.948,575.9155 147.955,575.9155 C109.83,575.9155 84.689,568.3445 70.312,561.9935 C58.931,556.9665 52.333,551.8955 49.617,549.5425 L49.617,531.0455 C53.874,533.5325 58.569,536.0955 63.639,538.6095 C83.371,548.3915 114.244,560.0525 149.271,560.0525 C177.743,560.0525 205.148,553.3855 230.726,540.2355 C235.66,537.6985 240.146,535.1065 244.168,532.5815 L244.168,549.4495 Z M67.239,333.7965 C88.552,312.4835 116.767,300.7455 146.685,300.7455 C176.603,300.7455 204.817,312.4835 226.13,333.7965 C241.402,349.0675 251.755,367.8835 256.398,388.3295 C251.775,383.2835 245.62,377.2815 237.927,371.2675 C226.823,362.5885 214.785,355.6685 202.146,350.7015 C186.321,344.4825 169.526,341.3295 152.226,341.3295 C134.966,341.3295 117.638,344.4975 100.721,350.7445 C87.25,355.7195 74.014,362.6465 61.38,371.3345 C50.538,378.7895 42.056,386.2125 36.241,391.8205 C40.461,370.0275 51.103,349.9325 67.239,333.7965 L67.239,333.7965 Z M23.104,413.2415 L23.104,458.6025 C23.104,460.3615 21.307,461.7915 19.487,461.1165 C18.41,460.7175 17.735,459.6405 17.735,458.4915 L17.735,445.8715 L12.193,445.8715 C11.583,445.8715 11.084,445.3735 11.084,444.7635 L11.084,427.5825 C11.084,426.9725 11.583,426.4745 12.193,426.4745 L17.735,426.4745 L17.735,413.2665 C17.735,412.1185 18.41,411.0405 19.487,410.6415 C21.307,409.9675 23.104,411.3965 23.104,413.1565 L23.104,413.2415 Z M286.719,416.7235 L286.719,413.3855 C286.719,406.2035 281.305,400.0505 274.15,399.4385 C272.546,399.3015 270.992,399.4425 269.532,399.8175 C268.238,387.9245 265.225,376.3405 260.51,365.2425 C254.264,350.5425 245.334,337.3245 233.968,325.9585 C222.601,314.5915 209.385,305.6615 194.684,299.4165 C179.447,292.9435 163.298,289.6615 146.685,289.6615 C130.071,289.6615 113.922,292.9435 98.685,299.4165 C83.985,305.6615 70.768,314.5915 59.401,325.9585 C48.035,337.3245 39.105,350.5425 32.86,365.2425 C28.145,376.3405 25.132,387.9245 23.838,399.8165 C22.379,399.4435 20.827,399.3015 19.224,399.4385 C12.067,400.0475 6.651,406.2015 6.651,413.3855 L6.651,416.7235 C2.706,418.7445 0,422.8535 0,427.5825 L0,444.7635 C0,449.4925 2.706,453.6015 6.651,455.6225 L6.651,458.3825 C6.651,464.9735 11.211,470.7915 17.671,472.0955 C19.557,472.4765 21.387,472.4475 23.104,472.1075 L23.104,512.0985 L24.728,513.7225 C26.296,515.2905 31.159,519.2215 38.533,524.1345 L38.533,554.1045 L39.999,555.6955 C41.176,556.9735 69.734,586.9995 147.955,586.9995 C226.321,586.9995 252.857,556.5875 253.948,555.2935 L255.253,553.7455 L255.253,525.0095 C262.765,519.4295 267.32,515.0435 268.642,513.7215 L270.265,512.0985 L270.265,472.1075 C271.987,472.4485 273.821,472.4765 275.71,472.0925 C282.165,470.7835 286.719,464.9685 286.719,458.3825 L286.719,455.6225 C290.664,453.6015 293.369,449.4925 293.369,444.7635 L293.369,427.5825 C293.369,422.8535 290.664,418.7445 286.719,416.7235 L286.719,416.7235 Z" id="Fill-36" fill="#000000"></path>
                <path d="M57.15,429.1731 C56.342,429.1731 55.521,428.9951 54.744,428.6211 C51.988,427.2901 50.832,423.9761 52.163,421.2201 C52.391,420.7471 57.921,409.4911 72.033,397.4611 C87.899,383.9351 100.463,382.4921 108.776,381.5361 L109.473,381.4561 C112.513,381.1031 115.265,383.2811 115.618,386.3211 C115.972,389.3621 113.793,392.1131 110.753,392.4661 L110.042,392.5481 C102.647,393.3981 92.52,394.5621 79.224,405.8971 C66.869,416.4281 62.191,425.9441 62.145,426.0391 C61.189,428.0191 59.21,429.1731 57.15,429.1731" id="Fill-38" fill-opacity="0.3" fill="#148AB1"></path>
                <path d="M51.1741,441.1109 C50.5011,441.1109 49.8211,440.9279 49.2101,440.5429 L46.7691,439.0069 C45.0421,437.9199 44.5231,435.6389 45.6101,433.9119 C46.6971,432.1849 48.9781,431.6659 50.7051,432.7529 L53.1461,434.2889 C54.8731,435.3759 55.3921,437.6569 54.3041,439.3839 C53.6031,440.4989 52.4021,441.1109 51.1741,441.1109" id="Fill-40" fill-opacity="0.3" fill="#148AB1"></path>
                <path d="M411.0175,105.5829 C411.3695,105.7009 411.6255,105.9279 411.7875,106.2649 C411.9335,106.5869 411.9485,106.9249 411.8315,107.2769 L401.6705,136.2409 C401.6705,136.2269 401.6555,136.2559 401.6265,136.3289 C401.6115,136.3589 401.6045,136.3809 401.6045,136.3949 C401.5745,136.4539 401.5385,136.5049 401.4945,136.5489 L401.4945,136.5709 L401.4725,136.5929 C401.4285,136.6519 401.3775,136.7099 401.3185,136.7689 C401.3325,136.7539 401.3185,136.7689 401.2745,136.8129 C401.2305,136.8429 401.1795,136.8719 401.1205,136.9009 C401.1065,136.9159 401.0845,136.9309 401.0545,136.9449 C401.0105,136.9739 400.9595,137.0039 400.9005,137.0329 L400.8785,137.0329 C400.8635,137.0329 400.8565,137.0399 400.8565,137.0549 C400.8565,137.0399 400.8495,137.0399 400.8345,137.0549 C400.8055,137.0699 400.7615,137.0839 400.7025,137.0989 L400.6375,137.0989 C400.5635,137.1139 400.4905,137.1209 400.4165,137.1209 C400.3585,137.1209 400.2925,137.1139 400.2185,137.0989 L400.1525,137.0989 C400.0945,137.0839 400.0435,137.0699 399.9995,137.0549 C399.9845,137.0399 399.9775,137.0399 399.9775,137.0549 C399.9775,137.0399 399.9695,137.0329 399.9555,137.0329 C399.8815,137.0039 399.8235,136.9739 399.7795,136.9449 C399.7495,136.9309 399.7275,136.9159 399.7135,136.9009 C399.6695,136.8719 399.6255,136.8429 399.5815,136.8129 C399.5375,136.7689 399.5225,136.7539 399.5375,136.7689 C399.4785,136.7099 399.4195,136.6519 399.3615,136.5929 L399.3615,136.5709 C399.3465,136.5709 399.3395,136.5639 399.3395,136.5489 C399.3095,136.5049 399.2805,136.4539 399.2515,136.3949 C399.2515,136.3809 399.2365,136.3589 399.2075,136.3289 C399.1925,136.2559 399.1855,136.2269 399.1855,136.2409 L390.2565,110.8169 L381.3275,136.2409 C381.3275,136.2269 381.3125,136.2559 381.2835,136.3289 C381.2685,136.3589 381.2615,136.3809 381.2615,136.3949 C381.2315,136.4539 381.1955,136.5049 381.1515,136.5489 L381.1515,136.5709 L381.1295,136.5929 C381.0855,136.6519 381.0335,136.7099 380.9755,136.7689 C380.9895,136.7539 380.9755,136.7689 380.9315,136.8129 C380.8875,136.8429 380.8435,136.8719 380.7995,136.9009 C380.7695,136.9159 380.7475,136.9309 380.7335,136.9449 C380.6745,136.9739 380.6155,137.0039 380.5575,137.0329 L380.5355,137.0329 L380.5135,137.0549 C380.5275,137.0399 380.5205,137.0399 380.4915,137.0549 C380.4615,137.0699 380.4175,137.0839 380.3595,137.0989 L380.2935,137.0989 C380.2205,137.1139 380.1465,137.1209 380.0735,137.1209 C380.0145,137.1209 379.9485,137.1139 379.8755,137.0989 L379.8095,137.0989 C379.7505,137.0839 379.6995,137.0699 379.6555,137.0549 C379.6405,137.0399 379.6405,137.0399 379.6555,137.0549 L379.6335,137.0329 L379.6115,137.0329 C379.5535,137.0039 379.4945,136.9739 379.4355,136.9449 C379.4065,136.9309 379.3845,136.9159 379.3695,136.9009 C379.3255,136.8719 379.2815,136.8429 379.2375,136.8129 C379.1935,136.7689 379.1795,136.7539 379.1935,136.7689 C379.1345,136.7099 379.0835,136.6519 379.0395,136.5929 C379.0255,136.5929 379.0175,136.5859 379.0175,136.5709 L378.9955,136.5489 C378.9665,136.5049 378.9375,136.4539 378.9075,136.3949 C378.9075,136.3809 378.9005,136.3589 378.8855,136.3289 C378.8565,136.2559 378.8425,136.2269 378.8425,136.2409 L368.6815,107.2769 C368.5495,106.9249 368.5635,106.5869 368.7255,106.2649 C368.8865,105.9279 369.1355,105.7009 369.4725,105.5829 C369.8245,105.4659 370.1625,105.4879 370.4845,105.6489 C370.8075,105.8099 371.0345,106.0599 371.1665,106.3969 L380.0735,131.8199 L389.0025,106.3969 C388.9875,106.4409 389.0025,106.4189 389.0465,106.3309 C389.0615,106.2869 389.0755,106.2429 389.0905,106.1989 C389.1195,106.1699 389.1415,106.1399 389.1565,106.1109 C389.1855,106.0669 389.2155,106.0299 389.2445,106.0009 C389.2735,105.9569 389.3025,105.9279 389.3325,105.9129 C389.3615,105.8839 389.3915,105.8549 389.4205,105.8249 L389.5085,105.7369 C389.5525,105.7079 389.5965,105.6859 389.6405,105.6709 C389.6695,105.6569 389.7065,105.6419 389.7505,105.6269 C389.8525,105.5829 389.8745,105.5689 389.8165,105.5829 C389.7865,105.5979 389.8015,105.5979 389.8605,105.5829 C389.9045,105.5689 389.9485,105.5539 389.9925,105.5389 C390.0505,105.5389 390.0945,105.5319 390.1245,105.5169 L390.2565,105.5169 L390.3885,105.5169 C390.4025,105.5319 390.4395,105.5389 390.4985,105.5389 C390.5565,105.5539 390.6005,105.5689 390.6305,105.5829 C390.6885,105.5979 390.7105,105.5979 390.6955,105.5829 L390.7175,105.6049 C390.7325,105.6049 390.7475,105.6129 390.7625,105.6269 C390.8065,105.6419 390.8425,105.6569 390.8725,105.6709 C390.9165,105.7009 390.9525,105.7229 390.9815,105.7369 C391.0115,105.7659 391.0475,105.7959 391.0915,105.8249 C391.1215,105.8549 391.1505,105.8839 391.1805,105.9129 C391.2095,105.9419 391.2385,105.9719 391.2675,106.0009 C391.2975,106.0299 391.3195,106.0669 391.3335,106.1109 C391.3635,106.1399 391.3855,106.1699 391.3995,106.1989 C391.4285,106.2429 391.4505,106.2869 391.4665,106.3309 C391.5095,106.4189 391.5175,106.4409 391.4875,106.3969 L400.4165,131.8199 L409.3455,106.3969 C409.4635,106.0599 409.6905,105.8099 410.0275,105.6489 C410.3505,105.4879 410.6805,105.4659 411.0175,105.5829" id="Fill-42" fill="#FEFEFE"></path>
            </g>
        </g>
    </g>
</svg>