<?xml version="1.0" encoding="UTF-8" standalone="no"?>
<svg width="958px" height="305px" viewBox="0 0 958 305" version="1.1" xmlns="http://www.w3.org/2000/svg" xmlns:xlink="http://www.w3.org/1999/xlink">
    <!-- Generator: Sketch 39.1 (31720) - http://www.bohemiancoding.com/sketch -->
    <title>flujo de trabajo</title>
    <desc>Created with Sketch.</desc>
    <defs></defs>
    <g id="assets" stroke="none" stroke-width="1" fill="none" fill-rule="evenodd">
        <g id="flujo-de-trabajo">
            <text id="TESTEAR" font-family="Cera-Medium, Cera" font-size="18" font-weight="400" fill="#000000">
                <tspan x="503" y="226">TESTEAR</tspan>
            </text>
            <text id="REDEFINIR" font-family="Cera-Medium, Cera" font-size="18" font-weight="400" fill="#000000">
                <tspan x="435" y="253">REDEFINIR</tspan>
            </text>
            <g id="Group-2" transform="translate(166.000000, 81.000000)">
                <text id="empatizar" font-family="Cera-Medium, Cera" font-size="16" font-weight="400" fill="#000000">
                    <tspan x="0" y="68">empatizar</tspan>
                </text>
                <rect id="Rectangle-2-Copy" fill="#EE476F" x="20.6666667" y="0" width="30" height="30"></rect>
            </g>
            <g id="Group-3" transform="translate(34.000000, 81.000000)">
                <rect id="Rectangle-2" fill="#EE476F" x="18" y="0" width="30" height="30"></rect>
                <text id="observar" font-family="Cera-Medium, Cera" font-size="16" font-weight="400" fill="#000000">
                    <tspan x="0" y="68">observar</tspan>
                </text>
            </g>
            <g id="Group" transform="translate(314.000000, 81.000000)">
                <text id="definir" font-family="Cera-Medium, Cera" font-size="16" font-weight="400" fill="#000000">
                    <tspan x="0" y="68">definir</tspan>
                </text>
                <rect id="Rectangle-2-Copy-2" fill="#4BBC96" x="8.33333333" y="0" width="30" height="30"></rect>
            </g>
            <g id="Group-Copy">
                <text id="idear" font-family="Cera-Medium, Cera" font-size="16" font-weight="400" fill="#000000">
                    <tspan x="454" y="149">idear</tspan>
                </text>
                <text id="prototipar" font-family="Cera-Medium, Cera" font-size="16" font-weight="400" fill="#000000">
                    <tspan x="569" y="149">prototipar</tspan>
                </text>
                <rect id="Rectangle-2-Copy-2" fill="#FCF200" x="458" y="81" width="30" height="30"></rect>
                <rect id="Rectangle-2-Copy-3" fill="#FCF200" x="593" y="81" width="30" height="30"></rect>
                <rect id="Rectangle-4" fill="#F4F4F4" x="0" y="0" width="269" height="30"></rect>
                <rect id="Rectangle-4-Copy" fill="#F4F4F4" x="272" y="0" width="132" height="30"></rect>
                <rect id="Rectangle-4-Copy-2" fill="#F4F4F4" x="407" y="0" width="274" height="30"></rect>
                <rect id="Rectangle-4-Copy-3" fill="#F4F4F4" x="684" y="0" width="274" height="30"></rect>
                <text id="CONOCER-AL-USUARIO" font-family="Cera-Light, Cera" font-size="14" font-weight="300" fill="#000000">
                    <tspan x="59" y="19">CONOCER AL USUARIO</tspan>
                </text>
                <text id="ESTRATEGIA" font-family="Cera-Light, Cera" font-size="14" font-weight="300" fill="#000000">
                    <tspan x="298" y="19">ESTRATEGIA</tspan>
                </text>
                <text id="INTERACCIÓN" font-family="Cera-Light, Cera" font-size="14" font-weight="300" fill="#000000">
                    <tspan x="498" y="19">INTERACCIÓN</tspan>
                </text>
                <text id="INTERFAZ" font-family="Cera-Light, Cera" font-size="14" font-weight="300" fill="#000000">
                    <tspan x="790" y="19">INTERFAZ</tspan>
                </text>
            </g>
            <g id="Group-Copy-2" transform="translate(695.000000, 81.000000)">
                <text id="implementar" font-family="Cera-Medium, Cera" font-size="16" font-weight="400" fill="#000000">
                    <tspan x="0" y="68">implementar</tspan>
                </text>
                <text id="analizar" font-family="Cera-Medium, Cera" font-size="16" font-weight="400" fill="#000000">
                    <tspan x="154" y="68">analizar</tspan>
                </text>
                <rect id="Rectangle-2-Copy-2" fill="#007FE1" x="33" y="0" width="30" height="30"></rect>
                <rect id="Rectangle-2-Copy-3" fill="#007FE1" x="168" y="0" width="30" height="30"></rect>
            </g>
            <path d="M269.5,0.398466543 L269.5,214.030063" id="Line" stroke="#E2E2E2" stroke-linecap="square" stroke-dasharray="4,4,4"></path>
            <path d="M404.5,0.398466543 L404.5,214.030063" id="Line-Copy" stroke="#E2E2E2" stroke-linecap="square" stroke-dasharray="4,4,4"></path>
            <path d="M681.5,0.398466543 L681.5,214.030063" id="Line-Copy-2" stroke="#E2E2E2" stroke-linecap="square" stroke-dasharray="4,4,4"></path>
            <path d="M415.721893,247 L59,247" id="Line" stroke="#000000" stroke-linecap="square"></path>
            <path d="M881.721893,247 L536.496741,247" id="Line-Copy-9" stroke="#000000" stroke-linecap="square"></path>
            <path d="M586.471209,219.5 L742.782043,219.5" id="Line" stroke="#000000" stroke-linecap="square"></path>
            <path d="M336.452468,219.5 L494.550613,219.5" id="Line-Copy-5" stroke="#000000" stroke-linecap="square"></path>
            <path d="M59.5,246.43287 L59.5,186.220902" id="Line" stroke="#000000" stroke-linecap="square"></path>
            <path d="M881.5,246.68287 L881.5,186.470902" id="Line-Copy-3" stroke="#000000" stroke-linecap="square"></path>
            <path d="M743.5,219.057144 L743.5,186.470902" id="Line-Copy-4" stroke="#000000" stroke-linecap="square"></path>
            <path d="M336.5,219.057144 L336.5,186.470902" id="Line-Copy-6" stroke="#000000" stroke-linecap="square"></path>
            <path d="M470.5,219.057144 L470.5,186.470902" id="Line-Copy-7" stroke="#000000" stroke-linecap="square"></path>
            <path d="M608.5,219.057144 L608.5,186.470902" id="Line-Copy-8" stroke="#000000" stroke-linecap="square"></path>
            <path d="M54.863961,181.863961 L63.863961,181.863961 L59.363961,186.363961 L54.863961,190.863961 L54.863961,181.863961 Z" id="Rectangle-3" fill="#000000" transform="translate(59.363961, 186.363961) rotate(-315.000000) translate(-59.363961, -186.363961) "></path>
            <path d="M331.863961,181.863961 L340.863961,181.863961 L336.363961,186.363961 L331.863961,190.863961 L331.863961,181.863961 Z" id="Rectangle-3-Copy" fill="#000000" transform="translate(336.363961, 186.363961) rotate(-315.000000) translate(-336.363961, -186.363961) "></path>
            <path d="M465.863961,181.863961 L474.863961,181.863961 L470.363961,186.363961 L465.863961,190.863961 L465.863961,181.863961 Z" id="Rectangle-3-Copy-2" fill="#000000" transform="translate(470.363961, 186.363961) rotate(-315.000000) translate(-470.363961, -186.363961) "></path>
            <path d="M603.863961,181.863961 L612.863961,181.863961 L608.363961,186.363961 L603.863961,190.863961 L603.863961,181.863961 Z" id="Rectangle-3-Copy-3" fill="#000000" transform="translate(608.363961, 186.363961) rotate(-315.000000) translate(-608.363961, -186.363961) "></path>
            <path d="M738.863961,181.863961 L747.863961,181.863961 L743.363961,186.363961 L738.863961,190.863961 L738.863961,181.863961 Z" id="Rectangle-3-Copy-5" fill="#000000" transform="translate(743.363961, 186.363961) rotate(-315.000000) translate(-743.363961, -186.363961) "></path>
            <path d="M877.5,181.863961 L886.5,181.863961 L882,186.363961 L877.5,190.863961 L877.5,181.863961 Z" id="Rectangle-3-Copy-6" fill="#000000" transform="translate(882.000000, 186.363961) rotate(-315.000000) translate(-882.000000, -186.363961) "></path>
            <g id="Group-4" transform="translate(96.000000, 91.000000)">
                <path d="M68.863961,1.86396103 L77.863961,1.86396103 L73.363961,6.36396103 L68.863961,10.863961 L68.863961,1.86396103 Z" id="Rectangle-3-Copy-4" fill="#000000" transform="translate(73.363961, 6.363961) rotate(-225.000000) translate(-73.363961, -6.363961) "></path>
                <path d="M0.5,6.5 L74.0527039,6.5" id="Line" stroke="#000000" stroke-linecap="square"></path>
            </g>
            <g id="Group-4-Copy" transform="translate(230.000000, 91.000000)">
                <path d="M68.863961,1.86396103 L77.863961,1.86396103 L73.363961,6.36396103 L68.863961,10.863961 L68.863961,1.86396103 Z" id="Rectangle-3-Copy-4" fill="#000000" transform="translate(73.363961, 6.363961) rotate(-225.000000) translate(-73.363961, -6.363961) "></path>
                <path d="M0.5,6.5 L74.0527039,6.5" id="Line" stroke="#000000" stroke-linecap="square"></path>
            </g>
            <g id="Group-4-Copy-2" transform="translate(363.000000, 91.000000)">
                <path d="M68.863961,1.86396103 L77.863961,1.86396103 L73.363961,6.36396103 L68.863961,10.863961 L68.863961,1.86396103 Z" id="Rectangle-3-Copy-4" fill="#000000" transform="translate(73.363961, 6.363961) rotate(-225.000000) translate(-73.363961, -6.363961) "></path>
                <path d="M0.5,6.5 L74.0527039,6.5" id="Line" stroke="#000000" stroke-linecap="square"></path>
            </g>
            <g id="Group-4-Copy-3" transform="translate(502.000000, 91.000000)">
                <path d="M68.863961,1.86396103 L77.863961,1.86396103 L73.363961,6.36396103 L68.863961,10.863961 L68.863961,1.86396103 Z" id="Rectangle-3-Copy-4" fill="#000000" transform="translate(73.363961, 6.363961) rotate(-225.000000) translate(-73.363961, -6.363961) "></path>
                <path d="M0.5,6.5 L74.0527039,6.5" id="Line" stroke="#053B4B" stroke-linecap="square"></path>
            </g>
            <g id="Group-4-Copy-4" transform="translate(638.000000, 91.000000)">
                <path d="M68.863961,1.86396103 L77.863961,1.86396103 L73.363961,6.36396103 L68.863961,10.863961 L68.863961,1.86396103 Z" id="Rectangle-3-Copy-4" fill="#000000" transform="translate(73.363961, 6.363961) rotate(-225.000000) translate(-73.363961, -6.363961) "></path>
                <path d="M0.5,6.5 L74.0527039,6.5" id="Line" stroke="#000000" stroke-linecap="square"></path>
            </g>
            <g id="Group-4-Copy-5" transform="translate(773.000000, 91.000000)">
                <path d="M68.863961,1.86396103 L77.863961,1.86396103 L73.363961,6.36396103 L68.863961,10.863961 L68.863961,1.86396103 Z" id="Rectangle-3-Copy-4" fill="#000000" transform="translate(73.363961, 6.363961) rotate(-225.000000) translate(-73.363961, -6.363961) "></path>
                <path d="M0.5,6.5 L74.0527039,6.5" id="Line" stroke="#000000" stroke-linecap="square"></path>
            </g>
            <rect id="Rectangle-5" fill="#F4F4F4" x="0" y="275" width="958" height="30"></rect>
            <text id="UX" font-family="Cera-Light, Cera" font-size="14" font-weight="300" fill="#000000">
                <tspan x="470" y="294">UX</tspan>
            </text>
        </g>
    </g>
</svg>