<?xml version="1.0" encoding="UTF-8" standalone="no"?>
<svg width="20px" height="20px" viewBox="0 0 20 20" version="1.1" xmlns="http://www.w3.org/2000/svg" xmlns:xlink="http://www.w3.org/1999/xlink">
    <!-- Generator: Sketch 39.1 (31720) - http://www.bohemiancoding.com/sketch -->
    <title>mas</title>
    <desc>Created with Sketch.</desc>
    <defs></defs>
    <g id="assets" stroke="none" stroke-width="1" fill="none" fill-rule="evenodd">
        <g id="mas" fill="#FFFFFF">
            <path d="M9,17.5312195 C9,18.3596466 9.67157288,19.0312195 10.5,19.0312195 C11.3284271,19.0312195 12,18.3596466 12,17.5312195 L12,1.5 C12,0.671572875 11.3284271,0 10.5,0 C9.67157288,0 9,0.671572875 9,1.5 L9,17.5312195 Z" id="Line"></path>
            <path d="M2.03694828,7.5 C1.18811518,7.5 0.5,8.17157288 0.5,9 C0.5,9.82842712 1.18811518,10.5 2.03694828,10.5 L18.4630517,10.5 C19.3118848,10.5 20,9.82842712 20,9 C20,8.17157288 19.3118848,7.5 18.4630517,7.5 L2.03694828,7.5 Z" id="Line-Copy-10"></path>
        </g>
    </g>
</svg>