<?xml version="1.0" encoding="UTF-8" standalone="no"?>
<svg width="794px" height="805px" viewBox="0 0 794 805" version="1.1" xmlns="http://www.w3.org/2000/svg" xmlns:xlink="http://www.w3.org/1999/xlink">
    <!-- Generator: Sketch 39.1 (31720) - http://www.bohemiancoding.com/sketch -->
    <title>waaws-brand-developer</title>
    <desc>Created with Sketch.</desc>
    <defs>
        <polygon id="path-1" points="0 301.1171 0 0.255 794.003 0.255 794.003 805 0 805 0 301.1171 -0.0003 805.0001 794.0027 805.0001 794.0027 301.1171 -5.42101086e-20 301.1171"></polygon>
        <polygon id="path-3" points="714.9369 0.255 0.7279 0.255 0.7279 477.9664 714.9369 477.9664 714.9369 0.255"></polygon>
    </defs>
    <g id="assets" stroke="none" stroke-width="1" fill="none" fill-rule="evenodd">
        <g id="waaws-brand-developer" transform="translate(-1.000000, -1.000000)">
            <path d="M354.5889,60.3973 C354.9049,59.7363 355.3929,59.2913 356.0539,59.0613 C356.7439,58.8313 357.4039,58.8743 358.0369,59.1903 C358.6679,59.5073 359.1139,59.9953 359.3719,60.6563 L376.8249,110.4723 L394.3219,60.6563 C394.2929,60.7423 394.3219,60.6993 394.4079,60.5263 C394.4359,60.4403 394.4649,60.3543 394.4939,60.2683 C394.5509,60.2103 394.5939,60.1533 394.6229,60.0953 C394.6809,60.0093 394.7379,59.9383 394.7959,59.8803 C394.8529,59.7933 394.9099,59.7363 394.9679,59.7083 C395.0259,59.6503 395.0829,59.5933 395.1409,59.5353 C395.1979,59.4783 395.2549,59.4203 395.3129,59.3633 C395.3989,59.3053 395.4849,59.2623 395.5709,59.2333 C395.6289,59.2053 395.7009,59.1763 395.7869,59.1473 C395.8629,59.1143 395.9169,59.0903 395.9469,59.0743 C395.8809,59.0883 395.8689,59.0853 395.9159,59.0613 C395.9869,59.0433 395.9969,59.0483 395.9469,59.0743 C395.9629,59.0713 395.9809,59.0663 396.0019,59.0613 C396.0889,59.0333 396.1749,59.0043 396.2609,58.9753 C396.3749,58.9753 396.4619,58.9613 396.5199,58.9323 L396.7779,58.9323 L397.0359,58.9323 C397.0649,58.9613 397.1369,58.9753 397.2519,58.9753 C397.3669,59.0043 397.4529,59.0333 397.5109,59.0613 C397.6249,59.0903 397.6679,59.0903 397.6399,59.0613 L397.6829,59.1043 C397.7109,59.1043 397.7399,59.1193 397.7699,59.1473 C397.8559,59.1763 397.9269,59.2053 397.9849,59.2333 C398.0709,59.2913 398.1419,59.3353 398.1999,59.3633 C398.2569,59.4203 398.3289,59.4783 398.4149,59.5353 C398.4729,59.5933 398.5299,59.6503 398.5879,59.7083 C398.6449,59.7653 398.7029,59.8233 398.7599,59.8803 C398.8179,59.9383 398.8609,60.0093 398.8899,60.0953 C398.9469,60.1533 398.9899,60.2103 399.0189,60.2683 C399.0759,60.3543 399.1189,60.4403 399.1489,60.5263 C399.2349,60.6993 399.2489,60.7423 399.1919,60.6563 L416.6879,110.4723 L434.1829,60.6563 C434.4129,59.9953 434.8579,59.5073 435.5189,59.1903 C436.1509,58.8743 436.7969,58.8313 437.4589,59.0613 C438.1479,59.2913 438.6509,59.7363 438.9669,60.3973 C439.2539,61.0293 439.2829,61.6903 439.0529,62.3793 L419.1439,119.1343 C419.1439,119.1063 419.1149,119.1633 419.0579,119.3073 C419.0279,119.3643 419.0139,119.4073 419.0139,119.4363 C418.9569,119.5513 418.8849,119.6523 418.7989,119.7383 L418.7989,119.7813 L418.7559,119.8243 C418.6709,119.9383 418.5709,120.0513 418.4589,120.1643 C418.4649,120.1573 418.4649,120.1573 418.4549,120.1683 C418.4649,120.1573 418.4649,120.1573 418.4589,120.1643 C418.4489,120.1743 418.4209,120.2023 418.3679,120.2543 C418.2819,120.3133 418.1809,120.3703 418.0669,120.4273 C418.0379,120.4563 417.9949,120.4853 417.9369,120.5133 C417.8509,120.5713 417.7499,120.6283 417.6349,120.6863 L417.5919,120.6863 C417.5629,120.6863 417.5489,120.7003 417.5489,120.7293 C417.5489,120.7003 417.5349,120.7003 417.5059,120.7293 C417.4479,120.7583 417.3619,120.7863 417.2479,120.8153 L417.1189,120.8153 C416.9739,120.8443 416.8309,120.8583 416.6879,120.8583 C416.5729,120.8583 416.4429,120.8443 416.2989,120.8153 L416.1699,120.8153 C416.0549,120.7863 415.9549,120.7583 415.8689,120.7293 C415.8399,120.7003 415.8259,120.7003 415.8259,120.7293 C415.8259,120.7003 415.8109,120.6863 415.7829,120.6863 C415.6379,120.6283 415.5239,120.5713 415.4379,120.5133 C415.3799,120.4853 415.3369,120.4563 415.3079,120.4273 C415.2229,120.3703 415.1359,120.3133 415.0499,120.2543 C414.9639,120.1683 414.9349,120.1403 414.9639,120.1683 C414.8489,120.0543 414.7339,119.9393 414.6189,119.8243 L414.6189,119.7813 C414.5899,119.7813 414.5759,119.7673 414.5759,119.7383 C414.5179,119.6523 414.4609,119.5513 414.4039,119.4363 C414.4039,119.4073 414.3749,119.3643 414.3179,119.3073 C414.2879,119.1633 414.2739,119.1063 414.2739,119.1343 L396.7779,69.3173 L379.2819,119.1343 C379.2819,119.1063 379.2529,119.1633 379.1959,119.3073 C379.1669,119.3643 379.1529,119.4073 379.1529,119.4363 C379.0939,119.5513 379.0229,119.6523 378.9369,119.7383 L378.9369,119.7813 L378.8939,119.8243 C378.8079,119.9393 378.7069,120.0543 378.5919,120.1683 C378.5779,120.1833 378.5499,120.2113 378.5059,120.2543 C378.4199,120.3133 378.3339,120.3703 378.2469,120.4273 C378.1899,120.4563 378.1469,120.4853 378.1179,120.5133 C378.0029,120.5713 377.8879,120.6283 377.7739,120.6863 L377.7309,120.6863 L377.6869,120.7293 C377.7149,120.7003 377.7009,120.7003 377.6439,120.7293 C377.5859,120.7583 377.4999,120.7863 377.3859,120.8153 L377.2559,120.8153 C377.1129,120.8443 376.9689,120.8583 376.8249,120.8583 C376.7099,120.8583 376.5809,120.8443 376.4379,120.8153 L376.3079,120.8153 C376.1929,120.7863 376.0929,120.7583 376.0069,120.7293 L375.9639,120.6863 L375.9209,120.6863 C375.8059,120.6283 375.6899,120.5713 375.5759,120.5133 C375.5179,120.4853 375.4749,120.4563 375.4459,120.4273 C375.3599,120.3703 375.2739,120.3133 375.1879,120.2543 C375.1019,120.1683 375.0729,120.1403 375.1019,120.1683 C374.9859,120.0543 374.8859,119.9393 374.7999,119.8243 C374.7709,119.8243 374.7569,119.8103 374.7569,119.7813 L374.7139,119.7383 C374.6559,119.6523 374.5989,119.5513 374.5419,119.4363 C374.5419,119.4073 374.5269,119.3643 374.4989,119.3073 C374.4409,119.1633 374.4119,119.1063 374.4119,119.1343 L354.5029,62.3793 C354.2439,61.6903 354.2719,61.0293 354.5889,60.3973 M396.7669,138.5653 C425.7549,138.5653 449.2539,115.0663 449.2539,86.0783 C449.2539,57.0913 425.7549,33.5913 396.7669,33.5913 C367.7789,33.5913 344.2799,57.0913 344.2799,86.0783 C344.2799,115.0663 367.7789,138.5653 396.7669,138.5653" id="Fill-1" fill="#221F20"></path>
            <path d="M418.4587,120.1642 C418.4647,120.1582 418.4657,120.1572 418.4547,120.1692" id="Stroke-3" stroke-linecap="round" stroke-linejoin="round"></path>
            <path d="M395.916,59.0614 C395.869,59.0844 395.88,59.0884 395.947,59.0744 C395.997,59.0484 395.987,59.0434 395.916,59.0614" id="Fill-5" fill="#FEFEFE"></path>
            <g id="Group-9" transform="translate(0.000000, 0.745000)">
                <mask id="mask-2" fill="white">
                    <use xlink:href="#path-1"></use>
                </mask>
                <g id="Clip-8"></g>
                <path d="M701.4707,589.6831 C689.7037,600.6401 658.8637,627.0131 610.7417,651.7521 C545.8007,685.1381 476.2427,702.0671 403.9997,702.0671 C315.0117,702.0671 236.0957,672.2041 185.5637,647.1531 C137.4817,623.3161 104.2567,598.7491 92.5327,589.2311 L92.5327,530.9331 C108.0507,541.6101 133.7747,557.7181 168.2637,573.8691 C221.7637,598.9211 307.4767,628.7851 411.9997,628.7851 C516.9087,628.7851 594.9037,598.4331 641.8587,572.9711 C668.4587,558.5471 688.3267,544.1091 701.4707,533.3681 L701.4707,589.6831 Z M660.8407,703.3701 C654.0347,709.7171 637.2167,723.5271 607.3457,737.2271 C539.2747,768.4471 457.2577,775.0001 400.4397,775.0001 C297.2547,775.0001 229.2117,754.5101 190.3007,737.3211 C159.4967,723.7141 141.6387,709.9911 134.2887,703.6211 L134.2887,653.5581 C145.8107,660.2911 158.5157,667.2281 172.2387,674.0311 C225.6437,700.5061 309.2017,732.0671 403.9997,732.0671 C481.0607,732.0671 555.2337,714.0221 624.4577,678.4331 C637.8137,671.5671 649.9527,664.5521 660.8407,657.7161 L660.8407,703.3701 Z M776.0027,344.1481 L776.0027,335.1121 C776.0027,322.3981 769.7317,310.8771 759.9747,303.9631 L759.9747,310.4041 C759.9747,316.4331 756.3577,321.7761 750.7607,324.0161 L741.3917,327.7631 C744.0597,328.8501 746.0027,331.4871 746.0027,334.4931 L746.0027,370.5371 L761.0027,370.5371 C762.6527,370.5371 764.0027,371.8881 764.0027,373.5371 L764.0027,420.0371 C764.0027,421.6881 762.6527,423.0371 761.0027,423.0371 L746.0027,423.0371 L746.0027,457.1951 C746.0027,460.3021 744.1767,463.2181 741.2627,464.2981 C736.3357,466.1241 731.4707,462.2551 731.4707,457.4931 L731.4707,334.7241 L731.4707,334.5931 C731.4707,333.5001 731.7137,332.4331 732.1497,331.4601 L712.4447,339.3421 L710.2737,356.8581 C707.5537,378.6851 704.4927,403.2471 701.4707,430.2501 L701.4707,457.4931 L701.4707,492.6021 L698.7147,495.5351 C698.4717,495.7931 673.8427,521.7101 626.3477,547.2521 C582.6317,570.7611 509.9577,598.7851 411.9997,598.7851 C313.4377,598.7851 232.4787,570.6981 181.9177,547.1351 C126.8707,521.4831 94.8377,495.4541 94.5207,495.1931 L92.5327,493.5561 L92.5327,457.4931 L92.5327,389.7981 C91.1267,378.2211 89.7567,367.2311 88.4647,356.8621 L86.2927,339.3401 L59.4727,328.6131 C61.3107,329.9461 62.5327,332.1071 62.5327,334.4931 L62.5327,334.7241 L62.5327,457.4931 C62.5327,462.2541 57.6687,466.1241 52.7417,464.2981 C49.8267,463.2181 47.9997,460.3021 47.9997,457.1941 L47.9997,423.0371 L32.9997,423.0371 C31.3497,423.0371 29.9997,421.6881 29.9997,420.0371 L29.9997,373.5371 C29.9997,371.8881 31.3497,370.5371 32.9997,370.5371 L47.9997,370.5371 L47.9997,334.7921 C47.9997,331.6831 49.8267,328.7671 52.7417,327.6881 C53.9137,327.2541 55.0797,327.1501 56.1797,327.2961 L47.9807,324.0161 C42.3827,321.7761 38.7657,316.4331 38.7657,310.4041 L38.7657,301.1171 C26.3477,307.3651 17.9997,320.4441 17.9997,335.1131 L17.9997,344.1481 C7.3237,349.6191 -0.0003,360.7391 -0.0003,373.5371 L-0.0003,420.0371 C-0.0003,432.8361 7.3237,443.9561 17.9997,449.4271 L17.9997,456.8991 C17.9997,474.7371 30.3417,490.4831 47.8267,494.0111 C52.9317,495.0411 57.8827,494.9651 62.5327,494.0431 L62.5327,602.2811 L66.9257,606.6741 C71.1707,610.9181 84.3327,621.5591 104.2887,634.8541 L104.2887,715.9681 L108.2567,720.2751 C111.4427,723.7341 188.7357,805.0001 400.4397,805.0001 C612.5367,805.0001 684.3557,722.6901 687.3087,719.1861 L690.8407,714.9971 L690.8407,637.2241 C711.1737,622.1201 723.5007,610.2501 727.0767,606.6731 L731.4707,602.2801 L731.4707,494.0431 C736.1307,494.9671 741.0947,495.0421 746.2087,494.0051 C763.6787,490.4621 776.0027,474.7231 776.0027,456.8971 L776.0027,449.4271 C786.6797,443.9561 794.0027,432.8361 794.0027,420.0371 L794.0027,373.5371 C794.0027,360.7391 786.6797,349.6191 776.0027,344.1481 L776.0027,344.1481 Z" id="Fill-7" fill="#221F20" mask="url(#mask-2)"></path>
            </g>
            <g id="Group-12" transform="translate(42.000000, 0.745000)">
                <mask id="mask-4" fill="white">
                    <use xlink:href="#path-3"></use>
                </mask>
                <g id="Clip-11"></g>
                <path d="M647.8169,308.0354 C646.2589,321.0364 644.6899,333.6564 643.1089,346.2984 C639.9819,371.4844 636.8319,396.7564 633.6819,425.2984 C631.7749,442.4954 617.4879,455.5294 600.4429,455.6494 L457.1249,455.6494 C440.0359,455.5724 425.7159,442.5174 423.8089,425.3094 C420.6479,396.6474 417.4999,371.2874 414.3499,345.9944 C412.7919,333.4514 411.2339,320.9284 409.6849,308.0254 C408.2139,295.9064 416.8669,284.7584 428.9629,283.1684 C462.0709,278.8314 495.4089,276.6614 528.7449,276.6614 C562.0809,276.6614 595.4299,278.8314 628.5379,283.1684 C640.6229,284.7564 649.2759,295.9064 647.8169,308.0354 M388.1349,297.4044 C379.3119,291.6754 368.9299,288.2544 357.8309,288.2544 C346.7309,288.2544 336.3489,291.6744 327.5259,297.4044 C324.1029,278.8364 309.2279,263.6164 289.5989,261.0424 C235.4219,253.9374 180.6319,252.5024 126.2049,256.6974 C130.9669,253.1584 135.9319,249.5904 141.1239,246.0204 C173.2669,223.9174 206.8669,206.3204 240.9929,193.7174 C283.4409,178.0424 326.8439,170.0944 369.9999,170.0944 C412.8109,170.0944 454.3569,177.8434 493.4829,193.1264 C524.8959,205.3974 554.8759,222.5374 582.5929,244.0734 C588.3649,248.5584 593.7949,253.0504 598.8879,257.4854 C541.3629,252.3584 483.3709,253.5264 426.0639,261.0424 C406.4319,263.6174 391.5559,278.8404 388.1349,297.4044 M305.9789,308.0344 C304.4319,320.9264 302.8719,333.4484 301.3139,345.9914 C298.1659,371.2874 295.0169,396.6464 291.8559,425.2964 C289.9489,442.4934 275.6619,455.5274 258.6069,455.6484 L115.2879,455.6484 C98.2109,455.5714 83.8899,442.5164 81.9839,425.3084 C78.8339,396.7544 75.6839,371.4834 72.5569,346.2974 C70.9759,333.6564 69.4069,321.0364 67.8479,308.0344 C66.3879,295.9054 75.0409,284.7564 87.1269,283.1654 C120.2449,278.8284 153.5719,276.6594 186.9189,276.6594 C220.2549,276.6594 253.6039,278.8284 286.7009,283.1654 C298.7969,284.7564 307.4499,295.9054 305.9789,308.0344 M139.9829,119.7054 C197.6659,62.0224 274.0279,30.2544 355.0019,30.2544 C435.9759,30.2544 512.3369,62.0224 570.0209,119.7054 C611.3529,161.0374 639.3729,211.9624 651.9409,267.3004 C639.4279,253.6414 622.7689,237.3974 601.9469,221.1214 C571.8969,197.6314 539.3149,178.9044 505.1069,165.4604 C462.2759,148.6284 416.8199,140.0944 369.9999,140.0944 C323.2859,140.0944 276.3859,148.6674 230.6009,165.5754 C194.1409,179.0394 158.3169,197.7874 124.1259,221.3014 C99.8259,238.0124 79.9199,254.6524 64.8519,268.5014 C61.6149,270.7334 58.7019,273.3784 56.1679,276.3444 C67.6429,217.5174 96.4089,163.2794 139.9829,119.7054 M703.7779,277.0954 L684.4579,277.0954 C680.1279,252.3574 672.9979,228.1874 663.0679,204.8154 C646.1649,165.0284 621.9959,129.2554 591.2339,98.4924 C560.4699,67.7294 524.6979,43.5604 484.9099,26.6574 C443.6729,9.1374 399.9649,0.2544 355.0009,0.2544 C310.0369,0.2544 266.3299,9.1374 225.0919,26.6574 C185.3049,43.5604 149.5319,67.7294 118.7699,98.4924 C88.0059,129.2554 63.8379,165.0284 46.9349,204.8154 C37.0049,228.1874 29.8749,252.3574 25.5449,277.0954 L11.8879,277.0954 C5.7249,277.0954 0.7279,282.0924 0.7279,288.2554 L0.7279,303.0194 C0.7279,307.5824 3.5069,311.6864 7.7429,313.3804 L47.9749,329.4734 C48.7839,336.0284 49.5939,342.5344 50.3999,349.0444 C53.5279,374.1414 56.6559,399.3164 59.7939,427.7604 C62.9549,456.2484 86.7669,477.8264 115.2319,477.9664 L258.6389,477.9664 L258.7039,477.9664 C287.0939,477.8034 310.8829,456.2144 314.0439,427.7494 C317.1829,399.1964 320.3329,373.9354 323.4599,348.7384 C323.9549,344.7684 324.4459,340.7004 324.9399,336.7234 C325.0769,336.3584 325.3109,336.0574 325.4099,335.6714 C329.2139,320.8944 342.5419,310.5744 357.8309,310.5744 C373.0989,310.5744 386.4279,320.8734 390.2409,335.6174 C390.3339,335.9744 390.5799,336.2334 390.7049,336.5734 C391.2039,340.6004 391.7009,344.7214 392.2029,348.7384 C395.3299,373.9334 398.4799,399.1964 401.6189,427.7584 C404.7789,456.2464 428.5909,477.8244 457.0669,477.9654 L600.4739,477.9654 L600.5399,477.9654 C628.9299,477.8024 652.7079,456.2124 655.8689,427.7484 C659.0069,399.3154 662.1349,374.1404 665.2619,349.0424 C666.0689,342.5344 666.8779,336.0284 667.6879,329.4744 L707.9219,313.3804 C712.1589,311.6864 714.9369,307.5824 714.9369,303.0194 L714.9369,288.2554 C714.9369,282.0924 709.9409,277.0954 703.7779,277.0954" id="Fill-10" fill="#010201" mask="url(#mask-4)"></path>
            </g>
            <path d="M702.471,590.683 C690.704,601.64 659.864,628.013 611.742,652.752 C546.801,686.138 477.243,703.067 405,703.067 C316.012,703.067 237.096,673.204 186.564,648.153 C138.482,624.316 105.257,599.749 93.533,590.231 L93.533,531.933 C109.051,542.61 134.775,558.718 169.264,574.869 C222.764,599.921 308.477,629.785 413,629.785 C517.909,629.785 595.904,599.433 642.859,573.971 C669.459,559.547 689.327,545.109 702.471,534.368 L702.471,590.683 Z M661.841,704.37 C655.035,710.717 638.217,724.527 608.346,738.227 C540.275,769.447 458.258,776 401.44,776 C298.255,776 230.212,755.51 191.301,738.321 C160.497,724.714 142.639,710.991 135.289,704.621 L135.289,654.558 C146.811,661.291 159.516,668.228 173.239,675.031 C226.644,701.506 310.202,733.067 405,733.067 C482.061,733.067 556.234,715.022 625.458,679.433 C638.814,672.567 650.953,665.552 661.841,658.716 L661.841,704.37 Z M777.003,345.148 L777.003,336.112 C777.003,323.398 770.732,311.877 760.975,304.963 L760.975,311.404 C760.975,317.433 757.358,322.776 751.761,325.016 L742.392,328.763 C745.06,329.85 747.003,332.487 747.003,335.493 L747.003,371.537 L762.003,371.537 C763.653,371.537 765.003,372.888 765.003,374.537 L765.003,421.037 C765.003,422.688 763.653,424.037 762.003,424.037 L747.003,424.037 L747.003,458.195 C747.003,461.302 745.177,464.218 742.263,465.298 C737.336,467.124 732.471,463.255 732.471,458.493 L732.471,335.724 L732.471,335.593 C732.471,334.5 732.714,333.433 733.15,332.46 L713.445,340.342 L711.274,357.858 C708.554,379.685 705.493,404.247 702.471,431.25 L702.471,458.493 L702.471,493.602 L699.715,496.535 C699.472,496.793 674.843,522.71 627.348,548.252 C583.632,571.761 510.958,599.785 413,599.785 C314.438,599.785 233.479,571.698 182.918,548.135 C127.871,522.483 95.838,496.454 95.521,496.193 L93.533,494.556 L93.533,458.493 L93.533,390.798 C92.127,379.221 90.757,368.231 89.465,357.862 L87.293,340.34 L60.473,329.613 C62.311,330.946 63.533,333.107 63.533,335.493 L63.533,335.724 L63.533,458.493 C63.533,463.254 58.669,467.124 53.742,465.298 C50.827,464.218 49,461.302 49,458.194 L49,424.037 L34,424.037 C32.35,424.037 31,422.688 31,421.037 L31,374.537 C31,372.888 32.35,371.537 34,371.537 L49,371.537 L49,335.792 C49,332.683 50.827,329.767 53.742,328.688 C54.914,328.254 56.08,328.15 57.18,328.296 L48.981,325.016 C43.383,322.776 39.766,317.433 39.766,311.404 L39.766,302.117 C27.348,308.365 19,321.444 19,336.113 L19,345.148 C8.324,350.619 1,361.739 1,374.537 L1,421.037 C1,433.836 8.324,444.956 19,450.427 L19,457.899 C19,475.737 31.342,491.483 48.827,495.011 C53.932,496.041 58.883,495.965 63.533,495.043 L63.533,603.281 L67.926,607.674 C72.171,611.918 85.333,622.559 105.289,635.854 L105.289,716.968 L109.257,721.275 C112.443,724.734 189.736,806 401.44,806 C613.537,806 685.356,723.69 688.309,720.186 L691.841,715.997 L691.841,638.224 C712.174,623.12 724.501,611.25 728.077,607.673 L732.471,603.28 L732.471,495.043 C737.131,495.967 742.095,496.042 747.209,495.005 C764.679,491.462 777.003,475.723 777.003,457.897 L777.003,450.427 C787.68,444.956 795.003,433.836 795.003,421.037 L795.003,374.537 C795.003,361.739 787.68,350.619 777.003,345.148 L777.003,345.148 Z" id="Fill-1" fill="#000000"></path>
            <path d="M403.873,512.024268 C385.652959,493.807609 289.397285,494.677002 247,564.052533 C279.275792,596.331708 384.98992,582.932231 403.873,564.052533 C422.752698,582.932231 528.466825,596.331708 560.746,564.052533 C518.348715,494.677002 422.089659,493.807609 403.873,512.024268" id="Fill-1" fill="#010202"></path>
        </g>
    </g>
</svg>