<?xml version="1.0" encoding="UTF-8" standalone="no"?>
<svg width="1267px" height="1284px" viewBox="0 0 1267 1284" version="1.1" xmlns="http://www.w3.org/2000/svg" xmlns:xlink="http://www.w3.org/1999/xlink">
    <!-- Generator: Sketch 39.1 (31720) - http://www.bohemiancoding.com/sketch -->
    <title>waaws-brand-designer</title>
    <desc>Created with Sketch.</desc>
    <defs>
        <polygon id="path-1" points="1266.7077 0.351 0 0.351 0 1284.1963 1266.7077 1284.1963 1266.7077 0.351"></polygon>
    </defs>
    <g id="assets" stroke="none" stroke-width="1" fill="none" fill-rule="evenodd">
        <g id="waaws-brand-designer" transform="translate(0.000000, -1.000000)">
            <path d="M633.3527,790.1935 C633.3527,790.1935 615.2877,759.3785 581.2867,781.6905 C547.2887,804.0045 535.2757,815.7685 498.0967,815.7685 C520.4077,858.2705 553.6687,900.7675 633.3527,900.7675 C713.0387,900.7675 746.2997,858.2705 768.6107,815.7685 C731.4317,815.7685 719.4197,804.0045 685.4187,781.6905 C651.4207,759.3785 633.3527,790.1935 633.3527,790.1935" id="Fill-1" fill="#010201"></path>
            <path d="M669.951,189.0525 C669.951,189.0075 669.904,189.0985 669.813,189.3275 C669.767,189.4195 669.744,189.4885 669.744,189.5335 C669.652,189.7165 669.538,189.8775 669.401,190.0155 L669.401,190.0835 L669.332,190.1525 C669.196,190.3335 669.037,190.5145 668.858,190.6945 C668.868,190.6845 668.868,190.6845 668.851,190.7025 C668.853,190.6995 668.855,190.6975 668.858,190.6945 C668.842,190.7105 668.797,190.7555 668.713,190.8395 C668.575,190.9325 668.415,191.0235 668.232,191.1155 C668.186,191.1615 668.117,191.2075 668.026,191.2525 C667.888,191.3445 667.727,191.4365 667.544,191.5275 L667.475,191.5275 C667.429,191.5275 667.407,191.5505 667.407,191.5955 C667.407,191.5505 667.383,191.5505 667.338,191.5955 C667.246,191.6425 667.108,191.6885 666.926,191.7335 L666.72,191.7335 C666.489,191.7795 666.261,191.8025 666.032,191.8025 C665.848,191.8025 665.642,191.7795 665.413,191.7335 L665.207,191.7335 C665.023,191.6885 664.863,191.6425 664.726,191.5955 C664.68,191.5505 664.657,191.5505 664.657,191.5955 C664.657,191.5505 664.634,191.5275 664.588,191.5275 C664.358,191.4365 664.175,191.3445 664.038,191.2525 C663.946,191.2075 663.877,191.1615 663.832,191.1155 C663.695,191.0235 663.557,190.9325 663.42,190.8395 C663.282,190.7025 663.235,190.6565 663.282,190.7025 C663.098,190.5195 662.915,190.3355 662.732,190.1525 L662.732,190.0835 C662.686,190.0835 662.663,190.0615 662.663,190.0155 C662.571,189.8775 662.48,189.7165 662.389,189.5335 C662.389,189.4885 662.342,189.4195 662.251,189.3275 C662.204,189.0985 662.181,189.0075 662.181,189.0525 L634.269,109.5775 L606.357,189.0525 C606.357,189.0075 606.311,189.0985 606.22,189.3275 C606.174,189.4195 606.151,189.4885 606.151,189.5335 C606.058,189.7165 605.944,189.8775 605.807,190.0155 L605.807,190.0835 L605.738,190.1525 C605.601,190.3355 605.44,190.5195 605.257,190.7025 C605.269,190.6905 605.274,190.6855 605.274,190.6855 C605.274,190.6855 605.269,190.6905 605.257,190.7025 C605.235,190.7245 605.189,190.7705 605.12,190.8395 C604.982,190.9325 604.844,191.0235 604.707,191.1155 C604.615,191.1615 604.546,191.2075 604.501,191.2525 C604.317,191.3445 604.134,191.4365 603.951,191.5275 L603.882,191.5275 L603.813,191.5955 C603.858,191.5505 603.835,191.5505 603.744,191.5955 C603.652,191.6425 603.515,191.6885 603.332,191.7335 L603.126,191.7335 C602.896,191.7795 602.667,191.8025 602.438,191.8025 C602.255,191.8025 602.049,191.7795 601.82,191.7335 L601.613,191.7335 C601.429,191.6885 601.269,191.6425 601.132,191.5955 C601.109,191.5735 601.097,191.5625 601.097,191.5625 C601.097,191.5625 601.109,191.5735 601.132,191.5955 L601.063,191.5275 L600.995,191.5275 C600.811,191.4365 600.627,191.3445 600.444,191.2525 C600.352,191.2075 600.283,191.1615 600.238,191.1155 C600.101,191.0235 599.963,190.9325 599.826,190.8395 C599.689,190.7025 599.642,190.6565 599.689,190.7025 C599.504,190.5195 599.344,190.3355 599.207,190.1525 C599.161,190.1525 599.138,190.1295 599.138,190.0835 L599.069,190.0155 C598.977,189.8775 598.886,189.7165 598.795,189.5335 C598.795,189.4885 598.771,189.4195 598.726,189.3275 C598.634,189.0985 598.589,189.0075 598.589,189.0525 L566.826,98.5085 C566.413,97.4085 566.458,96.3545 566.963,95.3465 C567.467,94.2925 568.246,93.5825 569.301,93.2145 C570.401,92.8485 571.455,92.9175 572.463,93.4205 C573.471,93.9255 574.183,94.7045 574.595,95.7585 L602.438,175.2335 L630.351,95.7585 C630.304,95.8965 630.351,95.8275 630.489,95.5525 C630.534,95.4145 630.58,95.2775 630.626,95.1395 C630.717,95.0485 630.786,94.9575 630.832,94.8645 C630.923,94.7275 631.015,94.6135 631.107,94.5205 C631.198,94.3835 631.289,94.2925 631.382,94.2465 C631.474,94.1545 631.565,94.0635 631.657,93.9705 C631.748,93.8795 631.84,93.7885 631.932,93.6965 C632.069,93.6045 632.207,93.5365 632.344,93.4895 C632.435,93.4445 632.551,93.3985 632.689,93.3525 C632.81,93.2995 632.895,93.2615 632.944,93.2355 C632.838,93.2585 632.82,93.2525 632.895,93.2145 C633.008,93.1865 633.024,93.1935 632.944,93.2355 C632.969,93.2305 632.997,93.2235 633.032,93.2145 C633.169,93.1695 633.307,93.1235 633.444,93.0775 C633.627,93.0775 633.765,93.0545 633.857,93.0085 L634.269,93.0085 L634.681,93.0085 C634.727,93.0545 634.842,93.0775 635.026,93.0775 C635.208,93.1235 635.346,93.1695 635.438,93.2145 C635.621,93.2605 635.689,93.2605 635.644,93.2145 L635.713,93.2835 C635.758,93.2835 635.804,93.3075 635.851,93.3525 C635.989,93.3985 636.102,93.4445 636.195,93.4895 C636.332,93.5825 636.446,93.6505 636.538,93.6965 C636.629,93.7885 636.744,93.8795 636.882,93.9705 C636.974,94.0635 637.065,94.1545 637.157,94.2465 C637.248,94.3385 637.34,94.4295 637.432,94.5205 C637.523,94.6135 637.592,94.7275 637.638,94.8645 C637.729,94.9575 637.798,95.0485 637.844,95.1395 C637.935,95.2775 638.004,95.4145 638.051,95.5525 C638.188,95.8275 638.211,95.8965 638.12,95.7585 L666.032,175.2335 L693.944,95.7585 C694.311,94.7045 695.021,93.9255 696.075,93.4205 C697.083,92.9175 698.114,92.8485 699.169,93.2145 C700.269,93.5825 701.071,94.2925 701.575,95.3465 C702.034,96.3545 702.08,97.4085 701.713,98.5085 L669.951,189.0525 Z M634.252,52.5815 C588.006,52.5815 550.517,90.0715 550.517,136.3165 C550.517,182.5625 588.006,220.0515 634.252,220.0515 C680.498,220.0515 717.987,182.5625 717.987,136.3165 C717.987,90.0715 680.498,52.5815 634.252,52.5815 L634.252,52.5815 Z" id="Fill-3" fill="#010201"></path>
            <path d="M668.8578,190.6948 C668.8558,190.6968 668.8538,190.6998 668.8508,190.7018 C668.8688,190.6838 668.8678,190.6848 668.8578,190.6948" id="Fill-5" fill="#010201"></path>
            <path d="M632.8945,93.2147 C632.8195,93.2517 632.8375,93.2587 632.9435,93.2357 C633.0235,93.1937 633.0075,93.1867 632.8945,93.2147" id="Fill-7" fill="#010201"></path>
            <path d="M254.5777,426.4236 C254.5777,426.4236 281.3647,372.8326 419.0227,409.7386 C419.0227,409.7386 568.2397,442.3776 567.9777,530.6906 C567.9777,530.6906 566.8607,682.0236 400.2927,685.0056 C400.2927,685.0056 318.3287,687.9876 264.1097,585.5056 C264.1097,585.5056 224.7857,474.6846 254.5777,426.4236 M849.4837,409.7386 C987.1437,372.8326 1013.9277,426.4236 1013.9277,426.4236 C1043.7197,474.6846 1004.3967,585.5056 1004.3967,585.5056 C950.1777,687.9876 868.2137,685.0056 868.2137,685.0056 C701.6447,682.0236 700.5287,530.6906 700.5287,530.6906 C700.2667,442.3776 849.4837,409.7386 849.4837,409.7386 M380.2957,704.6686 C380.2957,704.6686 525.6757,729.6926 598.3647,565.2466 C598.3647,565.2466 606.3907,544.2446 634.2537,543.7976 C662.1157,544.2446 670.1417,565.2466 670.1417,565.2466 C742.8297,729.6926 888.2107,704.6686 888.2107,704.6686 C1038.3577,683.2196 1098.8307,431.6356 1098.8307,431.6356 C1117.1517,367.2876 1054.1447,365.9466 1054.1447,365.9466 C819.9907,344.4976 689.2107,463.9576 689.2107,463.9576 C662.9957,488.9826 634.2537,484.8126 634.2537,484.8126 C634.2537,484.8126 605.5117,488.9826 579.2967,463.9576 C579.2967,463.9576 448.5157,344.4976 214.3597,365.9466 C214.3597,365.9466 151.3517,367.2876 169.6737,431.6356 C169.6737,431.6356 230.1507,683.2196 380.2957,704.6686" id="Fill-12" fill="#010201"></path>
            <g id="Group-16" transform="translate(0.000000, 0.650000)">
                <mask id="mask-2" fill="white">
                    <use xlink:href="#path-1"></use>
                </mask>
                <g id="Clip-15"></g>
                <path d="M1218.8477,670.0493 C1218.8477,672.6813 1216.6937,674.8353 1214.0617,674.8353 L1190.1317,674.8353 L1190.1317,729.3273 C1190.1317,734.2853 1187.2177,738.9373 1182.5687,740.6593 C1174.7087,743.5733 1166.9477,737.4003 1166.9477,729.8033 L1166.9477,533.9453 L1166.9477,533.7353 C1166.9477,529.6263 1168.9897,525.6753 1172.5567,523.6373 C1181.0317,518.7933 1190.1317,525.3483 1190.1317,533.5753 L1190.1317,591.0793 L1214.0617,591.0793 C1216.6937,591.0793 1218.8477,593.2333 1218.8477,595.8653 L1218.8477,670.0493 Z M1119.0867,729.8033 L1119.0867,785.8153 L1114.6907,790.4933 C1114.3027,790.9063 1075.0107,832.2523 999.2407,873.0013 C929.4987,910.5053 813.5587,955.2123 657.2817,955.2123 C500.0407,955.2123 370.8837,910.4043 290.2217,872.8143 C202.4027,831.8893 151.2997,790.3633 150.7927,789.9473 L147.6207,787.3373 L147.6207,729.8033 L147.6207,533.9453 C147.6207,529.5693 147.6897,525.2043 147.8057,520.8463 L154.0427,513.3083 C154.2207,513.0933 160.7947,505.2163 173.1757,492.4363 C164.6767,469.1093 159.3327,450.5443 156.8047,441.1403 C156.6977,441.2433 156.5867,441.3493 156.4797,441.4523 C156.5357,441.1623 156.5987,440.8743 156.6557,440.5853 C155.8527,437.5813 155.3577,435.5933 155.1637,434.7993 C148.3337,410.5853 150.5877,390.5663 161.8667,375.2933 C166.5087,369.0073 172.6687,363.7273 180.0477,359.6373 C204.1847,297.2223 241.3907,239.8503 290.3247,190.9163 C382.3497,98.8913 504.1737,48.2113 633.3547,48.2113 C762.5357,48.2113 884.3587,98.8913 976.3837,190.9163 C1013.7737,228.3063 1044.3267,270.6213 1067.4377,316.3463 C1071.9787,325.3303 1076.2267,334.4483 1080.1887,343.6853 C1082.2877,348.5773 1084.3027,353.5043 1086.2367,358.4633 C1094.6057,362.6953 1101.5377,368.3873 1106.6377,375.2933 C1117.9157,390.5663 1120.1707,410.5853 1113.3407,434.7983 C1112.0087,440.2533 1096.6247,501.5673 1063.1517,566.3443 C1042.7587,605.8093 1019.8407,638.3123 995.0337,662.9503 C975.2227,682.6273 954.1567,697.3313 932.0687,706.9463 C930.4247,716.8663 929.4407,726.5663 929.4407,735.9703 C929.4407,827.5603 1069.1557,855.4993 1081.5767,748.3873 C1044.3187,785.6443 969.6447,726.8203 1086.2277,610.2263 C1098.6667,597.7863 1109.5767,586.0453 1119.0867,574.5453 L1119.0867,729.8033 Z M1119.0867,940.6923 C1100.3157,958.1723 1051.1137,1000.2463 974.3447,1039.7143 C870.7407,1092.9763 759.7717,1119.9833 644.5187,1119.9833 C502.5527,1119.9833 376.6537,1072.3423 296.0377,1032.3763 C219.3297,994.3483 166.3257,955.1563 147.6207,939.9713 L147.6207,846.9653 C172.3787,863.9993 213.4167,889.6973 268.4387,915.4633 C353.7897,955.4303 490.5307,1003.0723 657.2817,1003.0723 C824.6477,1003.0723 949.0757,954.6523 1023.9857,914.0313 C1066.4217,891.0193 1098.1187,867.9863 1119.0867,850.8503 L1119.0867,940.6923 Z M1054.2677,1122.0623 C1043.4107,1132.1873 1016.5797,1154.2193 968.9267,1176.0753 C860.3287,1225.8823 729.4827,1236.3363 638.8397,1236.3363 C474.2227,1236.3363 365.6717,1203.6483 303.5947,1176.2263 C254.4517,1154.5173 225.9637,1132.6243 214.2367,1122.4623 L214.2367,1042.5953 C232.6187,1053.3363 252.8877,1064.4033 274.7797,1075.2563 C359.9787,1117.4933 493.2837,1167.8433 644.5187,1167.8433 C767.4577,1167.8433 885.7887,1139.0553 996.2257,1082.2793 C1017.5327,1071.3253 1036.8987,1060.1333 1054.2677,1049.2283 L1054.2677,1122.0623 Z M99.7607,533.9453 L99.7607,729.8033 C99.7607,737.4003 92.0007,743.5723 84.1397,740.6603 C79.4907,738.9373 76.5767,734.2843 76.5767,729.3253 L76.5767,674.8353 L52.6467,674.8353 C50.0147,674.8353 47.8607,672.6813 47.8607,670.0493 L47.8607,595.8653 C47.8607,593.2333 50.0147,591.0793 52.6467,591.0793 L76.5767,591.0793 L76.5767,534.0523 C76.5767,529.0943 79.4907,524.4423 84.1407,522.7193 C92.0007,519.8083 99.7607,525.9793 99.7607,533.5753 L99.7607,533.9453 Z M1237.9917,548.9793 L1237.9917,534.5643 C1237.9917,503.5553 1214.6167,476.9873 1183.7217,474.3463 C1178.0927,473.8643 1172.6127,474.1893 1167.3697,475.1913 C1166.1617,475.4223 1164.9627,475.6773 1163.7817,475.9803 C1161.3267,453.4193 1157.4367,431.1153 1152.1227,409.1343 C1145.3417,381.0853 1136.2397,353.5603 1124.8267,326.6953 C1102.9427,275.1853 1073.4247,227.8933 1036.8477,185.6673 C1028.3517,175.8593 1019.4757,166.3233 1010.2257,157.0723 C961.1467,107.9953 904.0787,69.4383 840.6027,42.4713 C774.8157,14.5213 705.0867,0.3503 633.3527,0.3503 C561.6207,0.3503 491.8927,14.5213 426.1037,42.4713 C362.6297,69.4383 305.5597,107.9953 256.4827,157.0723 C217.0437,196.5113 184.4067,241.1143 159.1107,290.0513 C152.9287,302.0113 147.1777,314.2283 141.8817,326.6953 C121.5237,374.6143 108.5137,424.6293 102.9267,475.9803 C96.6267,474.3653 89.9267,473.7553 83.0067,474.3443 C52.1027,476.9763 28.7167,503.5493 28.7167,534.5653 L28.7167,548.9793 C11.6827,557.7073 -0.0003,575.4473 -0.0003,595.8653 L-0.0003,670.0493 C-0.0003,690.4673 11.6827,708.2083 28.7167,716.9363 L28.7167,728.8553 C28.7167,757.3133 48.4047,782.4343 76.3007,788.0633 C84.4447,789.7063 92.3427,789.5843 99.7607,788.1133 L99.7607,960.7903 L106.7697,967.7993 C113.5417,974.5703 134.5397,991.5453 166.3757,1012.7553 L166.3757,1142.1603 L172.7057,1149.0313 C177.7897,1154.5503 301.0987,1284.1963 638.8397,1284.1963 C977.2067,1284.1963 1091.7837,1152.8843 1096.4937,1147.2943 L1102.1277,1140.6113 L1102.1277,1016.5363 C1134.5657,992.4403 1154.2317,973.5043 1159.9377,967.7983 L1166.9477,960.7883 L1166.9477,788.1133 C1174.3817,789.5873 1182.3007,789.7063 1190.4587,788.0523 C1218.3297,782.4003 1237.9917,757.2913 1237.9917,728.8533 L1237.9917,716.9363 C1255.0247,708.2083 1266.7077,690.4673 1266.7077,670.0493 L1266.7077,595.8653 C1266.7077,575.4473 1255.0247,557.7073 1237.9917,548.9793 L1237.9917,548.9793 Z" id="Fill-14" fill="#010201" mask="url(#mask-2)"></path>
            </g>
            <path d="M951.2812,632.2007 C966.1902,618.1697 979.3412,600.5597 990.6022,579.4957 C992.3522,574.3687 1000.3832,550.0667 1005.5732,521.3907 C1012.7892,481.5267 1011.2232,450.5987 1001.1632,434.3027 L1000.9582,434.1967 L1000.5942,433.3287 C999.9102,432.2827 996.6032,427.7017 988.3312,422.9907 C979.3432,417.8707 962.7742,411.7697 934.8632,411.7697 L934.8542,411.7697 C916.6782,411.7707 895.9402,414.3457 873.0242,419.4157 C887.9842,428.5677 901.8372,437.5257 913.9202,446.3297 C984.2272,497.5607 970.0492,565.6827 951.2812,632.2007" id="Fill-17" fill="#010201"></path>
            <path d="M451.4717,309.6407 C482.8047,298.0697 514.4647,289.1437 546.2607,282.8867 C582.5277,275.7487 618.9707,272.0937 655.3107,271.9657 C691.7947,312.2567 751.1257,348.1207 807.8837,381.1327 C825.6287,374.6627 843.8817,369.1017 862.5117,364.5167 C906.0527,353.8017 951.7577,348.3697 998.3657,348.3697 L998.3957,348.3697 C1006.0027,348.3697 1013.6817,348.5237 1021.3957,348.8127 C975.1027,313.4717 925.1607,285.1297 872.8237,264.5607 C824.3457,245.5097 773.7597,233.1297 721.7837,227.5397 C700.4987,225.2507 678.9827,224.0937 657.2817,224.0937 C616.4947,224.0937 575.6197,228.1997 534.9947,236.3307 C501.3907,243.0567 467.9587,252.5327 434.8917,264.7437 C418.3987,270.8337 401.9927,277.6267 385.6987,285.0537 C347.2417,302.5847 309.4377,323.7667 272.7697,348.3887 C300.3897,348.5117 327.6837,350.5407 354.3917,354.4517 C386.2317,336.7407 418.6987,321.7437 451.4717,309.6407" id="Fill-19" fill="#010201"></path>
            <path d="M1004.396,585.5059 C986.04,620.2029 964.503,642.8079 944.043,657.5349 C907.399,683.9129 874.21,685.0149 868.939,685.0149 C868.46,685.0149 868.213,685.0059 868.213,685.0059 C701.645,682.0239 700.528,530.6899 700.528,530.6899 C700.267,442.3779 849.483,409.7389 849.483,409.7389 C851.232,409.2699 852.95,408.8269 854.664,408.3869 C887.488,399.9579 913.828,396.7709 934.854,396.7699 C999.114,396.7669 1013.927,426.4239 1013.927,426.4239 C1043.72,474.6849 1004.396,585.5059 1004.396,585.5059 M400.292,685.0059 C400.292,685.0059 400.044,685.0149 399.567,685.0149 C391.361,685.0149 315.347,682.3519 264.11,585.5059 C264.11,585.5059 224.786,474.6849 254.578,426.4239 C254.578,426.4239 269.406,396.7719 333.653,396.7699 C355.779,396.7689 383.759,400.2849 419.022,409.7389 C419.022,409.7389 568.24,442.3779 567.978,530.6899 C567.978,530.6899 566.861,682.0239 400.292,685.0059 M1102.081,407.0669 C1100.272,400.4389 1098.321,393.8569 1096.232,387.3219 C1083.384,366.5769 1054.145,365.9469 1054.145,365.9469 C1049.965,365.5649 1045.824,365.2349 1041.709,364.9409 C1026.839,363.8759 1012.385,363.3699 998.395,363.3699 C929.692,363.3659 871.592,375.3459 824.952,391.0359 C736.438,420.8129 689.21,463.9579 689.21,463.9579 C669.549,482.7269 648.465,485.0729 639.153,485.0729 C636.049,485.0729 634.253,484.8129 634.253,484.8129 C634.253,484.8129 632.457,485.0729 629.354,485.0729 C620.042,485.0729 598.959,482.7279 579.296,463.9579 C579.296,463.9579 492.238,384.4499 333.028,366.8129 C313.167,364.6119 292.188,363.3699 270.11,363.3699 C263.745,363.3699 257.285,363.4779 250.74,363.6899 C238.906,364.0729 226.783,364.8089 214.36,365.9469 C214.36,365.9469 152.404,367.2769 169.25,430.0629 C169.391,430.5869 169.522,431.1029 169.674,431.6349 C169.674,431.6349 174.532,451.8389 184.907,481.2789 C211.148,555.7369 272.695,689.2969 380.295,704.6689 C380.295,704.6689 388.216,706.0309 401.271,706.0309 C444.177,706.0309 542.632,691.3319 598.364,565.2469 C598.364,565.2469 606.391,544.2439 634.253,543.7969 C662.115,544.2439 670.142,565.2469 670.142,565.2469 C725.869,691.3209 824.324,706.0309 867.235,706.0309 C880.295,706.0309 888.21,704.6689 888.21,704.6689 C905.186,702.2429 921.011,696.8689 935.736,689.2569 C1051.254,629.5399 1098.831,431.6349 1098.831,431.6349 C1099.924,427.7939 1100.72,424.1829 1101.265,420.7779 C1102.068,415.7609 1102.305,411.2069 1102.081,407.0669" id="Fill-21" fill="#010201"></path>
            <path d="M1096.2317,387.3224 C1098.3207,393.8574 1100.2727,400.4394 1102.0807,407.0664 C1101.6447,399.0114 1099.4577,392.5314 1096.2317,387.3224" id="Fill-23" fill="#010201"></path>
        </g>
    </g>
</svg>